<svg xmlns="http://www.w3.org/2000/svg" width="1600" height="900" viewBox="0 0 1600 900">
  <defs>
    <linearGradient id="skyg" x1="0" y1="0" x2="0" y2="1">
      <stop offset="0%" stop-color="#0a1626"/>
      <stop offset="100%" stop-color="#14383a"/>
    </linearGradient>
    <linearGradient id="lawng" x1="0" y1="0" x2="0" y2="1">
      <stop offset="0%" stop-color="#1d4a36"/>
      <stop offset="100%" stop-color="#0e2618"/>
    </linearGradient>
    <radialGradient id="vign2" cx="50%" cy="50%" r="75%">
      <stop offset="60%" stop-color="#000" stop-opacity="0"/>
      <stop offset="100%" stop-color="#000" stop-opacity="0.55"/>
    </radialGradient>
  </defs>

  <rect width="1600" height="520" fill="url(#skyg)"/>
  <rect y="520" width="1600" height="380" fill="url(#lawng)"/>

  <!-- moon + clouds -->
  <circle cx="1180" cy="150" r="70" fill="#e8ecf5"/>
  <circle cx="1156" cy="132" r="14" fill="#c9cfdd" opacity="0.7"/>
  <circle cx="1204" cy="168" r="10" fill="#c9cfdd" opacity="0.7"/>
  <circle cx="1180" cy="150" r="110" fill="#e8ecf5" opacity="0.08"/>
  <path d="M980 210 q60 -26 130 0 q60 22 120 4 q-40 36 -130 24 q-90 -10 -120 -28" fill="#0d1c30" opacity="0.8"/>

  <!-- palm silhouettes -->
  <g fill="#071219">
    <path d="M120 520 q14 -160 -10 -230 q40 40 60 -20 q10 46 44 30 q-24 30 8 44 q-40 4 -44 30 q30 -6 44 22 q-40 -8 -56 14 q10 60 4 110 Z"/>
    <path d="M1500 520 q-16 -180 6 -250 q-36 44 -60 -14 q-6 48 -42 34 q22 28 -10 42 q42 2 46 28 q-32 -4 -44 24 q40 -10 54 12 q-8 66 -2 124 Z"/>
  </g>

  <!-- fence -->
  <g stroke="#08141c" stroke-width="10">
    <path d="M0 470 H1600" stroke-width="8"/>
    <path d="M60 470 V520 M220 470 V520 M1340 470 V520 M1560 470 V520"/>
  </g>

  <!-- TOOLSHED (hotspot 24-42% x, 26-66% y) -->
  <path d="M370 300 L530 230 L690 300 V590 H370 Z" fill="#241b12"/>
  <path d="M348 312 L530 218 L712 312 L690 300 L530 230 L370 300 Z" fill="#100b06"/>
  <rect x="400" y="360" width="110" height="90" fill="#0c0906"/>
  <path d="M400 360 h110 v90 h-110 z" fill="none" stroke="#38291a" stroke-width="6"/>
  <!-- open door: pitch black inside -->
  <rect x="545" y="350" width="115" height="240" fill="#050403"/>
  <rect x="533" y="350" width="12" height="240" fill="#38291a"/>
  <g stroke="#1c1815" stroke-width="4" opacity="0.9">
    <path d="M390 320 V580 M430 310 V580 M470 300 V580 M510 296 V590"/>
  </g>
  <!-- FLOOR GRATE by the shed (hotspot 26-40% x, 62-78% y) -->
  <rect x="420" y="572" width="212" height="120" rx="10" fill="#141a17"/>
  <g stroke="#2f3b34" stroke-width="6">
    <path d="M440 584 v96 M478 584 v96 M516 584 v96 M554 584 v96 M592 584 v96"/>
  </g>
  <circle cx="560" cy="640" r="7" fill="#d9c463" opacity="0.85"/>

  <!-- OVERGROWN BUSHES (hotspot 4-22% x, 58-84% y) -->
  <g fill="#173c22">
    <ellipse cx="120" cy="660" rx="110" ry="76"/>
    <ellipse cx="240" cy="700" rx="120" ry="86"/>
    <ellipse cx="80" cy="740" rx="100" ry="70"/>
  </g>
  <g fill="#1e4f2c">
    <ellipse cx="170" cy="640" rx="70" ry="46"/>
    <ellipse cx="270" cy="672" rx="66" ry="44"/>
  </g>
  <path d="M300 620 q6 -60 -8 -84" stroke="#7a5a2e" stroke-width="9" fill="none" stroke-linecap="round"/>

  <!-- JANITOR GUS (hotspot 48-62% x, 32-78% y) -->
  <g>
    <ellipse cx="880" cy="700" rx="64" ry="14" fill="#000" opacity="0.4"/>
    <rect x="842" y="420" width="78" height="180" rx="24" fill="#3f5a3a"/>
    <rect x="852" y="432" width="58" height="80" fill="#5a7a52"/>
    <rect x="846" y="600" width="32" height="96" rx="9" fill="#31421f"/>
    <rect x="886" y="600" width="32" height="96" rx="9" fill="#31421f"/>
    <rect x="826" y="432" width="20" height="118" rx="9" fill="#3f5a3a"/>
    <rect x="918" y="432" width="20" height="118" rx="9" fill="#3f5a3a"/>
    <!-- rake -->
    <path d="M960 380 L985 660" stroke="#7a5a2e" stroke-width="9"/>
    <path d="M960 660 h56 M964 660 v22 M978 662 v22 M992 662 v22 M1006 660 v22" stroke="#5c6165" stroke-width="6"/>
    <ellipse cx="881" cy="384" rx="27" ry="30" fill="#caa27c"/>
    <path d="M853 376 a28 18 0 0 1 56 0 l-4 -26 h-48 Z" fill="#42505c"/>
    <rect x="850" y="348" width="62" height="12" rx="6" fill="#42505c"/>
    <circle cx="872" cy="386" r="3.4" fill="#20160e"/>
    <circle cx="892" cy="386" r="3.4" fill="#20160e"/>
    <path d="M868 404 q13 6 26 0" stroke="#8a6a4a" stroke-width="3" fill="none"/>
    <path d="M862 398 q20 14 40 0" stroke="#9c9c9c" stroke-width="5" fill="none"/>
  </g>

  <!-- VENDING MACHINE (hotspot 78-92% x, 34-76% y) -->
  <rect x="1252" y="300" width="212" height="392" rx="12" fill="#7c1f27"/>
  <rect x="1268" y="318" width="120" height="290" rx="8" fill="#160d18"/>
  <g font-family="Trebuchet MS" font-weight="bold">
    <text x="1418" y="360" font-size="26" fill="#ffd98a" text-anchor="middle" transform="rotate(90 1418 360)">SCOOBY SNAX</text>
  </g>
  <g opacity="0.95">
    <rect x="1282" y="336" width="40" height="26" rx="4" fill="#d98f2b"/>
    <rect x="1332" y="336" width="40" height="26" rx="4" fill="#4a8fd9"/>
    <rect x="1282" y="380" width="40" height="26" rx="4" fill="#57a35c"/>
    <rect x="1332" y="380" width="40" height="26" rx="4" fill="#c95c8f"/>
    <rect x="1282" y="424" width="40" height="26" rx="4" fill="#d98f2b"/>
    <!-- the dangling box -->
    <rect x="1330" y="430" width="42" height="28" rx="4" fill="#e8b73a" transform="rotate(14 1351 444)"/>
  </g>
  <rect x="1268" y="622" width="120" height="44" rx="8" fill="#0b0710"/>
  <circle cx="1428" cy="470" r="16" fill="#2b2b30"/>
  <rect x="1420" y="500" width="18" height="60" rx="6" fill="#2b2b30"/>
  <rect x="1252" y="300" width="212" height="392" rx="12" fill="#ffd98a" opacity="0.05"/>

  <!-- DRAINED POOL (hotspot 44-78% x, 82-96% y) -->
  <path d="M690 750 L1270 750 L1220 866 L740 866 Z" fill="#0f1f22"/>
  <path d="M690 750 L1270 750 L1220 866 L740 866 Z" fill="none" stroke="#2c5257" stroke-width="8"/>
  <path d="M760 800 l60 -8 M900 820 l80 -6 M1080 796 l70 10" stroke="#22393c" stroke-width="5"/>
  <path d="M860 760 q10 30 -6 60 M1010 758 q-8 34 8 66" stroke="#101a1c" stroke-width="4" fill="none"/>
  <!-- sneaker prints in the muck -->
  <g fill="#3e7a4e" opacity="0.8">
    <ellipse cx="950" cy="840" rx="12" ry="6" transform="rotate(-18 950 840)"/>
    <ellipse cx="990" cy="826" rx="12" ry="6" transform="rotate(-14 990 826)"/>
    <ellipse cx="1030" cy="812" rx="12" ry="6" transform="rotate(-10 1030 812)"/>
  </g>

  <rect width="1600" height="900" fill="url(#vign2)"/>
</svg>
