<svg xmlns="http://www.w3.org/2000/svg" width="1600" height="900" viewBox="0 0 1600 900">
  <defs>
    <linearGradient id="jcwall" x1="0" y1="0" x2="0" y2="1">
      <stop offset="0%" stop-color="#2e251b"/>
      <stop offset="55%" stop-color="#453723"/>
      <stop offset="100%" stop-color="#5b4a2f"/>
    </linearGradient>
    <linearGradient id="jcfloor" x1="0" y1="0" x2="0" y2="1">
      <stop offset="0%" stop-color="#57493a"/>
      <stop offset="55%" stop-color="#382d21"/>
      <stop offset="100%" stop-color="#211913"/>
    </linearGradient>
    <radialGradient id="jcamb" cx="50%" cy="40%" r="65%">
      <stop offset="0%" stop-color="#ffdf9e" stop-opacity="0.12"/>
      <stop offset="100%" stop-color="#ffdf9e" stop-opacity="0"/>
    </radialGradient>
    <radialGradient id="jccone" cx="50%" cy="0%" r="80%">
      <stop offset="0%" stop-color="#ffe6a8" stop-opacity="0.5"/>
      <stop offset="55%" stop-color="#ffe6a8" stop-opacity="0.16"/>
      <stop offset="100%" stop-color="#ffe6a8" stop-opacity="0"/>
    </radialGradient>
    <radialGradient id="jcbulbcore" cx="50%" cy="50%" r="50%">
      <stop offset="0%" stop-color="#fff3cf" stop-opacity="0.95"/>
      <stop offset="100%" stop-color="#ffe9b0" stop-opacity="0"/>
    </radialGradient>
    <radialGradient id="jcpool" cx="50%" cy="50%" r="50%">
      <stop offset="0%" stop-color="#ffd98a" stop-opacity="0.22"/>
      <stop offset="100%" stop-color="#ffd98a" stop-opacity="0"/>
    </radialGradient>
    <radialGradient id="jcseep" cx="50%" cy="50%" r="60%">
      <stop offset="0%" stop-color="#5ec87c"/>
      <stop offset="45%" stop-color="#3d8f52"/>
      <stop offset="80%" stop-color="#6a5424"/>
      <stop offset="100%" stop-color="#3a2c14"/>
    </radialGradient>
    <radialGradient id="jcgglow" cx="50%" cy="50%" r="55%">
      <stop offset="0%" stop-color="#4ade80" stop-opacity="0.16"/>
      <stop offset="100%" stop-color="#4ade80" stop-opacity="0"/>
    </radialGradient>
    <radialGradient id="jcvig" cx="50%" cy="42%" r="74%">
      <stop offset="48%" stop-color="#000" stop-opacity="0"/>
      <stop offset="100%" stop-color="#000" stop-opacity="0.42"/>
    </radialGradient>
    <linearGradient id="jcmetal" x1="0" y1="0" x2="1" y2="0">
      <stop offset="0%" stop-color="#63636b"/>
      <stop offset="45%" stop-color="#9d9da6"/>
      <stop offset="100%" stop-color="#54545b"/>
    </linearGradient>
    <linearGradient id="jcwood" x1="0" y1="0" x2="0" y2="1">
      <stop offset="0%" stop-color="#7d5f3a"/>
      <stop offset="100%" stop-color="#57412a"/>
    </linearGradient>
    <linearGradient id="jcyel" x1="0" y1="0" x2="0" y2="1">
      <stop offset="0%" stop-color="#e5bc42"/>
      <stop offset="100%" stop-color="#a67e1e"/>
    </linearGradient>
    <linearGradient id="jcpaper" x1="0" y1="0" x2="0" y2="1">
      <stop offset="0%" stop-color="#f4ecd2"/>
      <stop offset="100%" stop-color="#d8cba4"/>
    </linearGradient>
    <pattern id="jcpeg" width="34" height="42" patternUnits="userSpaceOnUse">
      <circle cx="10" cy="12" r="2.4" fill="#2c2115"/>
    </pattern>
    <pattern id="jcblock" width="170" height="92" patternUnits="userSpaceOnUse">
      <path d="M0 46 H170 M0 92 H170 M85 0 V46 M170 46 V92" stroke="#191007" stroke-width="2" fill="none"/>
    </pattern>
    <g id="jcchair">
      <path d="M0 0 l30 0 l52 238 l-30 0 Z" fill="#4e605d"/>
      <path d="M8 28 l20 0 l44 200 l-20 0 Z" fill="#3c4c4a"/>
      <path d="M12 40 L74 246" stroke="#2e3b39" stroke-width="6"/>
      <rect x="48" y="230" width="36" height="9" rx="3" fill="#2e3b39"/>
      <circle cx="42" cy="122" r="4.5" fill="#71847f"/>
      <path d="M0 0 l30 0 l3 12 l-30 0 Z" fill="#71847f"/>
    </g>
    <filter id="jcgrain">
      <feTurbulence type="fractalNoise" baseFrequency="0.9" numOctaves="2" stitchTiles="stitch"/>
      <feColorMatrix type="saturate" values="0"/>
      <feComponentTransfer><feFuncA type="linear" slope="0.05"/></feComponentTransfer>
      <feComposite operator="over" in2="SourceGraphic"/>
    </filter>
  </defs>

  <!-- room shell -->
  <rect width="1600" height="620" fill="url(#jcwall)"/>
  <rect width="1600" height="620" fill="url(#jcblock)" opacity="0.4"/>
  <rect width="1600" height="46" fill="#1a130c" opacity="0.6"/>
  <ellipse cx="140" cy="84" rx="170" ry="60" fill="#120c06" opacity="0.16"/>
  <ellipse cx="1480" cy="110" rx="150" ry="70" fill="#120c06" opacity="0.14"/>
  <rect y="620" width="1600" height="280" fill="url(#jcfloor)"/>
  <rect y="614" width="1600" height="12" fill="#221810"/>
  <path d="M0 626 H1600" stroke="#0c0805" stroke-width="3"/>
  <rect width="1600" height="900" fill="url(#jcamb)"/>

  <!-- worn concrete: drain, cracks, stains, shine -->
  <ellipse cx="300" cy="792" rx="62" ry="19" fill="#171009" opacity="0.22"/>
  <ellipse cx="300" cy="790" rx="38" ry="12" fill="#1c140c" stroke="#43382a" stroke-width="3"/>
  <ellipse cx="300" cy="790" rx="24" ry="7.5" fill="#0c0805"/>
  <path d="M282 787 h36 M284 793 h32" stroke="#43382a" stroke-width="2"/>
  <path d="M238 806 L146 838 M352 800 L420 818 M1052 856 L1178 826 L1262 832" stroke="#14100a" stroke-width="2.5" opacity="0.5" fill="none"/>
  <ellipse cx="520" cy="736" rx="72" ry="14" fill="#120c06" opacity="0.25"/>
  <ellipse cx="1250" cy="748" rx="88" ry="15" fill="#120c06" opacity="0.2"/>
  <ellipse cx="860" cy="862" rx="230" ry="30" fill="#8a7a5c" opacity="0.07"/>
  <ellipse cx="400" cy="806" rx="160" ry="24" fill="#8a7a5c" opacity="0.06"/>

  <!-- left standpipe with valve, slow drip into a coffee can -->
  <path d="M53 0 V548" stroke="#55483a" stroke-width="18"/>
  <path d="M62 0 V548" stroke="#2c2214" stroke-width="4" opacity="0.6"/>
  <rect x="40" y="126" width="26" height="13" rx="3" fill="#6a5b48"/>
  <rect x="42" y="548" width="22" height="14" rx="3" fill="#6a5b48"/>
  <circle cx="53" cy="318" r="16" fill="none" stroke="#8a4a3a" stroke-width="5"/>
  <path d="M37 318 h32 M53 302 v32" stroke="#8a4a3a" stroke-width="4"/>
  <circle cx="53" cy="318" r="4" fill="#5c2c22"/>
  <path d="M50 566 q6 40 2 66" stroke="#1f1409" stroke-width="7" opacity="0.18" fill="none"/>
  <circle cx="54" cy="576" r="3" fill="#9fd4e8" opacity="0.85">
    <animate attributeName="cy" values="576;636;636" dur="1.7s" repeatCount="indefinite"/>
    <animate attributeName="opacity" values="0;0.85;0" dur="1.7s" repeatCount="indefinite"/>
  </circle>
  <ellipse cx="57" cy="708" rx="36" ry="7" fill="#000" opacity="0.35"/>
  <rect x="28" y="644" width="56" height="62" rx="4" fill="#a04434"/>
  <rect x="28" y="664" width="56" height="22" fill="#e8dcc0"/>
  <text x="56" y="681" font-family="Trebuchet MS" font-size="13" font-weight="bold" fill="#5c2a1e" text-anchor="middle">JOE'S</text>
  <ellipse cx="56" cy="644" rx="28" ry="8" fill="#3a2a1c"/>
  <ellipse cx="56" cy="645" rx="21" ry="5.5" fill="#241812"/>
  <circle cx="56" cy="645" r="9" fill="none" stroke="#4a5a52" stroke-width="1.5" opacity="0.7"/>

  <!-- overhead pipe runs -->
  <g stroke="#5c4e3c" stroke-width="16" fill="none">
    <path d="M0 120 H620 q30 0 30 30 V240"/>
    <path d="M1400 0 V180 q0 26 26 26 H1600"/>
  </g>
  <g stroke="#2c2214" stroke-width="3" fill="none" opacity="0.8">
    <path d="M120 112 v16 M300 112 v16 M520 112 v16 M642 168 h16 M1392 90 h16 M1470 198 v16 M1560 198 v16"/>
  </g>
  <path d="M0 128 H612 M1408 8 V172" stroke="#241b0f" stroke-width="3" opacity="0.55" fill="none"/>
  <rect x="636" y="240" width="28" height="14" rx="3" fill="#6a5b48"/>
  <circle cx="650" cy="206" r="15" fill="none" stroke="#8a4a3a" stroke-width="5"/>
  <path d="M635 206 h30 M650 191 v30" stroke="#8a4a3a" stroke-width="4"/>
  <circle cx="650" cy="206" r="4" fill="#5c2c22"/>
  <path d="M648 258 q4 60 -2 116" stroke="#1f1409" stroke-width="8" opacity="0.16" fill="none"/>
  <path d="M1420 212 q6 46 2 88" stroke="#1f1409" stroke-width="7" opacity="0.14" fill="none"/>

  <!-- pegboard with hanging tools -->
  <rect x="492" y="196" width="222" height="234" rx="8" fill="#5c4930" stroke="#3a2c1c" stroke-width="5"/>
  <rect x="498" y="202" width="210" height="222" rx="6" fill="url(#jcpeg)" opacity="0.6"/>
  <!-- hammer -->
  <circle cx="536" cy="226" r="4" fill="#2c2115"/>
  <path d="M512 240 h50 l-4 16 h-42 Z" fill="url(#jcmetal)"/>
  <path d="M512 240 l-8 10 8 8" fill="#7a7a82"/>
  <rect x="531" y="256" width="11" height="74" rx="4" fill="#a07c48"/>
  <!-- hand saw -->
  <circle cx="656" cy="224" r="4" fill="#2c2115"/>
  <rect x="634" y="232" width="46" height="36" rx="11" fill="#7a5230"/>
  <rect x="646" y="241" width="22" height="18" rx="8" fill="#463424"/>
  <path d="M640 266 h38 l-20 122 l-8 -4 Z" fill="#9aa0a8"/>
  <path d="M640 268 l-2 8 6 -2 -2 8 6 -2 -2 8" stroke="#7a7f86" stroke-width="2" fill="none" opacity="0.8"/>
  <!-- plunger -->
  <circle cx="690" cy="232" r="4" fill="#2c2115"/>
  <rect x="686" y="238" width="8" height="140" rx="3" fill="#b08a5a"/>
  <path d="M664 376 q26 -18 52 0 l-5 26 q-21 12 -42 0 Z" fill="#8f3b34"/>
  <ellipse cx="690" cy="377" rx="26" ry="6" fill="#a8524a"/>

  <!-- bare wall hook (rope coil is a game overlay) + dust ghost of the coil -->
  <ellipse cx="1198" cy="322" rx="66" ry="70" fill="none" stroke="#1c150c" stroke-width="10" opacity="0.08"/>
  <circle cx="1196" cy="264" r="13" fill="#5a4c3e"/>
  <circle cx="1196" cy="264" r="5" fill="#2c231a"/>
  <path d="M1196 258 v22 q0 11 11 11" stroke="#8a7a64" stroke-width="7" fill="none" stroke-linecap="round"/>

  <!-- pinned work-rota clipboard -->
  <circle cx="1412" cy="242" r="4" fill="#2c2115"/>
  <path d="M1412 244 l-14 14 M1412 244 l14 14" stroke="#5a4c38" stroke-width="3"/>
  <rect x="1368" y="254" width="88" height="126" rx="7" fill="#7a5230" stroke="#4a3018" stroke-width="3"/>
  <rect x="1376" y="266" width="72" height="104" fill="url(#jcpaper)"/>
  <rect x="1396" y="248" width="32" height="14" rx="4" fill="#9aa0a8"/>
  <text x="1412" y="284" font-family="Trebuchet MS" font-size="12" font-weight="bold" fill="#4a3a20" text-anchor="middle">WORK ROTA</text>
  <g stroke="#9a8b66" stroke-width="2">
    <path d="M1382 298 h60 M1382 312 h60 M1382 326 h60 M1382 340 h60 M1382 354 h44"/>
  </g>
  <path d="M1436 308 l4 5 7 -9 M1436 336 l4 5 7 -9" stroke="#5a7a3e" stroke-width="2.5" fill="none"/>

  <!-- east doorway sliver -->
  <rect x="1584" y="140" width="16" height="478" fill="#3a2f1f"/>
  <rect x="1584" y="140" width="4" height="478" fill="#d9a95f" opacity="0.3"/>

  <!-- SHELVING UNIT (paint_shelf hotspot zone) -->
  <rect x="72" y="168" width="398" height="400" rx="6" fill="#1d160f"/>
  <rect x="72" y="168" width="398" height="12" fill="#4e3d28"/>
  <rect x="72" y="180" width="14" height="388" fill="#4e3d28"/>
  <rect x="456" y="180" width="14" height="388" fill="#4e3d28"/>
  <!-- boxes stacked on top of the unit -->
  <rect x="110" y="128" width="82" height="40" rx="3" fill="#2c2318"/>
  <rect x="212" y="136" width="60" height="32" rx="3" fill="#251d13"/>
  <path d="M110 148 h82 M212 152 h60" stroke="#180f08" stroke-width="2" opacity="0.7"/>
  <!-- row A (shadowy top row; empty slot right end = glowing-can overlay spot) -->
  <rect x="96" y="240" width="50" height="60" rx="4" fill="#2c231a"/>
  <ellipse cx="121" cy="240" rx="25" ry="6" fill="#3a2e20"/>
  <rect x="158" y="232" width="70" height="68" rx="3" fill="#33281c"/>
  <path d="M158 258 h70" stroke="#22190f" stroke-width="4"/>
  <rect x="238" y="246" width="26" height="54" rx="5" fill="#20301e"/>
  <rect x="270" y="252" width="22" height="48" rx="5" fill="#1c2a20"/>
  <path d="M296 238 a14 14 0 0 1 28 0 v62 h-28 Z" fill="#2a2417"/>
  <ellipse cx="382" cy="296" rx="30" ry="5" fill="none" stroke="#6a5b41" stroke-width="2" opacity="0.28"/>
  <rect x="426" y="244" width="22" height="56" rx="4" fill="#241d14"/>
  <rect x="86" y="300" width="372" height="13" fill="#5a4630"/>
  <path d="M86 313 h372" stroke="#1c130a" stroke-width="4"/>
  <!-- row B: BLEACH, WAX, sprays, folded rags -->
  <path d="M98 344 q0 -18 16 -18 h6 v-8 h16 v8 h8 q16 0 16 18 v54 h-62 Z" fill="#ded8c8"/>
  <rect x="118" y="312" width="20" height="10" rx="2" fill="#7a8ea0"/>
  <rect x="102" y="352" width="54" height="26" rx="3" fill="#4a6ea8"/>
  <text x="129" y="370" font-family="Trebuchet MS" font-size="13" font-weight="bold" fill="#f2f4f8" text-anchor="middle">BLEACH</text>
  <rect x="172" y="340" width="48" height="58" rx="3" fill="url(#jcmetal)"/>
  <ellipse cx="196" cy="340" rx="24" ry="6" fill="#b8b8c0"/>
  <rect x="172" y="356" width="48" height="24" fill="#8a2f2f"/>
  <text x="196" y="373" font-family="Trebuchet MS" font-size="13" font-weight="bold" fill="#f4e6d0" text-anchor="middle">WAX</text>
  <path d="M232 336 h20 l8 8 v8 h-22 Z" fill="#3f6e5a"/>
  <rect x="234" y="352" width="26" height="46" rx="4" fill="#4a8068"/>
  <path d="M240 360 h14 v18 h-14 Z" fill="#d8e4dc" opacity="0.7"/>
  <rect x="270" y="332" width="30" height="66" rx="5" fill="#7a5222"/>
  <rect x="276" y="352" width="18" height="22" rx="2" fill="#cbb98a"/>
  <g>
    <rect x="312" y="384" width="72" height="14" rx="3" fill="#b9a98c"/>
    <rect x="316" y="371" width="66" height="13" rx="3" fill="#8f7f66"/>
    <rect x="312" y="358" width="70" height="13" rx="3" fill="#c9bda0"/>
    <rect x="320" y="346" width="52" height="12" rx="3" fill="#7a6a52"/>
  </g>
  <rect x="398" y="356" width="42" height="42" rx="4" fill="#556058"/>
  <path d="M398 372 h42" stroke="#3c4640" stroke-width="4"/>
  <rect x="86" y="398" width="372" height="13" fill="#5a4630"/>
  <path d="M86 411 h372" stroke="#1c130a" stroke-width="4"/>
  <!-- row C: stacked paint cans, crate, jugs -->
  <rect x="100" y="450" width="54" height="46" rx="3" fill="url(#jcmetal)"/>
  <rect x="106" y="404" width="54" height="46" rx="3" fill="url(#jcmetal)"/>
  <ellipse cx="133" cy="404" rx="27" ry="6" fill="#b8b8c0"/>
  <path d="M112 466 q4 16 0 28" stroke="#5aa06a" stroke-width="6" fill="none" opacity="0.8"/>
  <path d="M146 420 q4 14 0 24" stroke="#a05a4a" stroke-width="5" fill="none" opacity="0.8"/>
  <rect x="172" y="428" width="86" height="68" rx="3" fill="#4a3826"/>
  <path d="M172 450 h86 M172 472 h86 M200 428 v68 M230 428 v68" stroke="#312416" stroke-width="3"/>
  <rect x="272" y="436" width="40" height="60" rx="4" fill="#37424a"/>
  <rect x="318" y="444" width="36" height="52" rx="4" fill="#443122"/>
  <rect x="366" y="448" width="22" height="48" rx="4" fill="#242a20"/>
  <rect x="394" y="444" width="26" height="52" rx="4" fill="#2c2118"/>
  <rect x="86" y="496" width="372" height="13" fill="#5a4630"/>
  <path d="M86 509 h372" stroke="#1c130a" stroke-width="4"/>
  <rect x="120" y="522" width="60" height="40" rx="3" fill="#171008"/>
  <path d="M72 568 h398" stroke="#3a2c1c" stroke-width="8"/>

  <!-- LOST+FOUND box with tennis racket -->
  <ellipse cx="218" cy="760" rx="108" ry="13" fill="#000" opacity="0.35"/>
  <g transform="rotate(16 272 630)">
    <ellipse cx="272" cy="618" rx="24" ry="33" fill="none" stroke="#b98a4e" stroke-width="6"/>
    <path d="M254 600 h36 M254 614 h38 M254 628 h36 M262 590 v56 M272 586 v62 M282 590 v56" stroke="#d8cba4" stroke-width="1.5" opacity="0.6"/>
    <path d="M272 651 v34" stroke="#8a6636" stroke-width="8" stroke-linecap="round"/>
  </g>
  <path d="M118 672 h192 v84 h-192 Z" fill="#8a6a42"/>
  <path d="M118 672 l-16 -26 h64 l14 26 Z" fill="#a0794b"/>
  <path d="M310 672 l18 -24 h-62 l-16 24 Z" fill="#6e522f"/>
  <path d="M118 672 h192" stroke="#57412a" stroke-width="4"/>
  <path d="M214 672 v84" stroke="#6e5334" stroke-width="3" opacity="0.6"/>
  <text x="222" y="722" font-family="Trebuchet MS" font-size="20" font-weight="bold" fill="#463218" text-anchor="middle">LOST + FOUND</text>
  <path d="M131 672 q-7 24 3 40 q-10 8 -6 20" stroke="#8f3b3b" stroke-width="11" fill="none" stroke-linecap="round"/>

  <!-- stacked paint cans on floor -->
  <ellipse cx="398" cy="712" rx="78" ry="11" fill="#000" opacity="0.35"/>
  <rect x="346" y="662" width="48" height="44" rx="3" fill="url(#jcmetal)"/>
  <rect x="400" y="662" width="48" height="44" rx="3" fill="url(#jcmetal)"/>
  <rect x="372" y="618" width="48" height="44" rx="3" fill="url(#jcmetal)"/>
  <ellipse cx="396" cy="618" rx="24" ry="6" fill="#b8b8c0"/>
  <path d="M380 634 q5 14 0 26" stroke="#5aa06a" stroke-width="6" fill="none" opacity="0.85"/>
  <path d="M356 678 q4 12 0 24" stroke="#a05a4a" stroke-width="5" fill="none" opacity="0.8"/>
  <path d="M372 640 a26 12 0 0 1 48 0" stroke="#7a7f86" stroke-width="4" fill="none"/>

  <!-- supply crate: bare top edge is the box-cutter overlay's perch -->
  <ellipse cx="516" cy="696" rx="72" ry="11" fill="#000" opacity="0.35"/>
  <rect x="458" y="566" width="110" height="124" fill="url(#jcwood)"/>
  <path d="M458 566 v124 M568 566 v124 M458 608 h110 M458 650 h110" stroke="#3f2f1c" stroke-width="4"/>
  <path d="M458 566 l110 124 M568 566 l-110 124" stroke="#3f2f1c" stroke-width="3" opacity="0.5"/>
  <rect x="452" y="558" width="122" height="12" rx="3" fill="#8a6a42"/>
  <path d="M452 558 h122" stroke="#d9b06a" stroke-width="3" opacity="0.5"/>
  <text x="513" y="638" font-family="Trebuchet MS" font-size="13" font-weight="bold" fill="#3a2a18" text-anchor="middle" opacity="0.85">SUPPLY CO.</text>

  <!-- FLOOR GRATE with riveted edging and warm-to-green seep -->
  <rect x="596" y="636" width="408" height="200" rx="14" fill="#262b26"/>
  <rect x="596" y="636" width="408" height="200" rx="14" fill="none" stroke="#0e120e" stroke-width="4"/>
  <path d="M604 641 H996" stroke="#6a7a5e" stroke-width="3" opacity="0.5"/>
  <rect x="614" y="652" width="372" height="168" rx="6" fill="url(#jcseep)"/>
  <rect x="614" y="652" width="372" height="168" rx="6" fill="#000" opacity="0.3"/>
  <g stroke="#1c231d" stroke-width="9">
    <path d="M648 654 v164 M688 654 v164 M728 654 v164 M768 654 v164 M808 654 v164 M848 654 v164 M888 654 v164 M928 654 v164 M968 654 v164"/>
  </g>
  <path d="M614 702 h372 M614 766 h372" stroke="#202a22" stroke-width="7"/>
  <g fill="#454c42">
    <circle cx="620" cy="646" r="3.5"/><circle cx="700" cy="646" r="3.5"/><circle cx="800" cy="646" r="3.5"/><circle cx="900" cy="646" r="3.5"/><circle cx="980" cy="646" r="3.5"/>
    <circle cx="620" cy="826" r="3.5"/><circle cx="700" cy="826" r="3.5"/><circle cx="800" cy="826" r="3.5"/><circle cx="900" cy="826" r="3.5"/><circle cx="980" cy="826" r="3.5"/>
    <circle cx="604" cy="700" r="3.5"/><circle cx="604" cy="772" r="3.5"/><circle cx="996" cy="700" r="3.5"/><circle cx="996" cy="772" r="3.5"/>
  </g>
  <ellipse cx="800" cy="736" rx="200" ry="92" fill="url(#jcgglow)"/>
  <ellipse cx="800" cy="600" rx="240" ry="30" fill="#3f9e63" opacity="0.05"/>
  <!-- hasp and staple (padlock is a game overlay) -->
  <rect x="778" y="628" width="44" height="20" rx="4" fill="#43434b"/>
  <circle cx="786" cy="638" r="2.5" fill="#26262c"/>
  <circle cx="814" cy="638" r="2.5" fill="#26262c"/>
  <path d="M794 632 v-12 a6 6 0 0 1 12 0 v12" stroke="#8a8a92" stroke-width="5" fill="none"/>

  <!-- warm light pool on the floor under the bulb -->
  <ellipse cx="800" cy="724" rx="330" ry="120" fill="url(#jcpool)"/>

  <!-- stool with the crumpled invoice (invoice stays painted in the base) -->
  <ellipse cx="800" cy="634" rx="84" ry="11" fill="#000" opacity="0.35"/>
  <path d="M754 525 l-16 99 M846 525 l18 99" stroke="#6b543c" stroke-width="10"/>
  <path d="M778 525 l-8 86 M824 525 l10 86" stroke="#4e3d2b" stroke-width="8"/>
  <path d="M744 566 h112" stroke="#6b543c" stroke-width="6"/>
  <rect x="738" y="508" width="134" height="17" rx="7" fill="#6b543c"/>
  <path d="M740 510 h130" stroke="#e8c37f" stroke-width="2.5" opacity="0.5"/>
  <path d="M738 622 h6 M864 622 h6" stroke="#4ade80" stroke-width="3" opacity="0.18"/>
  <g transform="rotate(-6 806 496)">
    <path d="M756 466 l92 -8 l10 44 l-14 9 l7 13 l-88 10 Z" fill="url(#jcpaper)"/>
    <path d="M756 466 l9 40 l-7 9" fill="#cfc5a0"/>
    <text x="800" y="486" font-family="Trebuchet MS" font-size="12" font-weight="bold" fill="#6a5c3a" text-anchor="middle">INVOICE</text>
    <path d="M770 496 h64 M772 508 h58" stroke="#8f825e" stroke-width="3"/>
    <path d="M812 520 l30 -3" stroke="#8c2424" stroke-width="3"/>
  </g>
  <ellipse cx="802" cy="516" rx="92" ry="26" fill="#ffdf9e" opacity="0.1"/>

  <!-- wet floor sign -->
  <g transform="rotate(-6 1050 640)">
    <ellipse cx="1050" cy="702" rx="46" ry="8" fill="#000" opacity="0.35"/>
    <path d="M1020 700 L1050 560 L1080 700 Z" fill="url(#jcyel)"/>
    <path d="M1028 688 L1050 584 L1072 688 Z" fill="#8f6f14"/>
    <text x="1050" y="650" font-family="Trebuchet MS" font-size="17" font-weight="bold" fill="#241c04" text-anchor="middle">WET</text>
    <text x="1050" y="672" font-family="Trebuchet MS" font-size="13" font-weight="bold" fill="#241c04" text-anchor="middle">FLOOR</text>
  </g>

  <!-- rolling mop bucket with wringer -->
  <ellipse cx="1168" cy="714" rx="82" ry="11" fill="#000" opacity="0.35"/>
  <ellipse cx="1160" cy="714" rx="80" ry="12" fill="#6a94a0" opacity="0.16"/>
  <path d="M1084 740 q60 -20 120 0 q40 12 76 2" stroke="#cfe0da" stroke-width="6" fill="none" opacity="0.09"/>
  <path d="M1150 618 L1080 428" stroke="#8a6a42" stroke-width="9" stroke-linecap="round"/>
  <path d="M1150 618 L1080 428" stroke="#5c4526" stroke-width="3" opacity="0.6"/>
  <path d="M1112 606 L1224 606 L1212 702 L1124 702 Z" fill="url(#jcyel)"/>
  <path d="M1112 606 L1224 606 L1221 630 L1115 630 Z" fill="#f0cf6a" opacity="0.5"/>
  <ellipse cx="1168" cy="606" rx="56" ry="13" fill="#8a6a14"/>
  <ellipse cx="1168" cy="608" rx="46" ry="10" fill="#4a6a72"/>
  <path d="M1136 604 a34 8 0 0 1 44 0" stroke="#dff0ea" stroke-width="3" fill="none" opacity="0.6"/>
  <circle cx="1146" cy="612" r="3" fill="#dff0ea" opacity="0.5"/>
  <circle cx="1188" cy="610" r="2.4" fill="#dff0ea" opacity="0.45"/>
  <rect x="1196" y="574" width="44" height="40" rx="5" fill="#7a7f86"/>
  <path d="M1196 588 h44" stroke="#54585e" stroke-width="4"/>
  <path d="M1238 578 L1258 546" stroke="#54585e" stroke-width="7" stroke-linecap="round"/>
  <circle cx="1134" cy="708" r="7" fill="#2c2c30"/>
  <circle cx="1200" cy="708" r="7" fill="#2c2c30"/>

  <!-- stacked folding chairs -->
  <ellipse cx="1440" cy="704" rx="118" ry="13" fill="#000" opacity="0.35"/>
  <use href="#jcchair" x="1338" y="446"/>
  <use href="#jcchair" x="1384" y="450"/>
  <use href="#jcchair" x="1430" y="454"/>

  <!-- broom in the corner -->
  <path d="M1582 330 L1546 648" stroke="#8a6a42" stroke-width="8" stroke-linecap="round"/>
  <rect x="1532" y="636" width="44" height="14" rx="4" transform="rotate(10 1554 643)" fill="#5c4526"/>
  <path d="M1516 644 l56 10 q0 44 -16 58 l-52 -10 q10 -28 12 -58 Z" fill="#b08a3f"/>
  <path d="M1524 662 l40 8 M1518 682 l40 8" stroke="#7c5f26" stroke-width="3"/>

  <!-- cobwebs -->
  <g stroke="#8f8a7c" stroke-width="1.2" opacity="0.28" fill="none">
    <path d="M72 168 Q120 190 150 168 M72 216 Q112 210 140 178 M96 168 Q100 205 78 226"/>
    <path d="M1600 46 Q1550 70 1524 46 M1600 100 Q1556 92 1536 60"/>
  </g>

  <!-- hero light: hanging bulb, cone, dust motes -->
  <path d="M796 0 q6 70 4 148" stroke="#4a4438" stroke-width="5" fill="none"/>
  <path d="M786 148 h28 l-4 16 h-20 Z" fill="#55503f"/>
  <path d="M818 158 L832 204" stroke="#7a745e" stroke-width="2" stroke-dasharray="3 3"/>
  <circle cx="833" cy="208" r="3.5" fill="#7a745e"/>
  <circle cx="800" cy="176" r="48" fill="url(#jcbulbcore)"/>
  <circle cx="800" cy="176" r="17" fill="#fff1c4"/>
  <path d="M794 180 q6 -8 12 0" stroke="#e8b95f" stroke-width="2" fill="none"/>
  <path d="M800 168 L470 900 H1130 Z" fill="url(#jccone)"/>
  <g fill="#ffe9b0" opacity="0.55">
    <circle cx="748" cy="300" r="2.2"/><circle cx="836" cy="368" r="1.6"/><circle cx="772" cy="452" r="2"/>
    <circle cx="810" cy="540" r="1.8"/><circle cx="760" cy="626" r="2.1"/><circle cx="852" cy="590" r="1.5"/>
  </g>
  <g fill="#ffe9b0" opacity="0.3">
    <circle cx="788" cy="690" r="1.7"/><circle cx="724" cy="560" r="1.4"/><circle cx="866" cy="470" r="1.3"/>
    <circle cx="830" cy="262" r="1.4"/><circle cx="700" cy="384" r="1.3"/><circle cx="896" cy="330" r="1.2"/>
  </g>

  <!-- foreground depth accents -->
  <path d="M0 900 V824 q86 8 136 26 l28 50 Z" fill="#0b0806" opacity="0.8"/>
  <path d="M1600 900 V836 q-80 4 -122 22 l-20 42 Z" fill="#0b0806" opacity="0.8"/>

  <rect width="1600" height="900" filter="url(#jcgrain)" opacity="0.3"/>
  <rect width="1600" height="900" fill="url(#jcvig)"/>
</svg>
