<svg xmlns="http://www.w3.org/2000/svg" width="1600" height="900" viewBox="0 0 1600 900">
<defs>
<linearGradient id="poolcabSky" x1="0" y1="0" x2="0" y2="1">
<stop offset="0%" stop-color="#0a1128"/>
<stop offset="55%" stop-color="#14384f"/>
<stop offset="100%" stop-color="#1e5b52"/>
</linearGradient>
<linearGradient id="poolcabFloor" x1="0" y1="0" x2="0" y2="1">
<stop offset="0%" stop-color="#54402a"/>
<stop offset="55%" stop-color="#352517"/>
<stop offset="100%" stop-color="#1b130c"/>
</linearGradient>
<linearGradient id="poolcabWater" x1="0" y1="0" x2="0" y2="1">
<stop offset="0%" stop-color="#2c6a72"/>
<stop offset="100%" stop-color="#0d222b"/>
</linearGradient>
<linearGradient id="poolcabHead" x1="0" y1="0" x2="0" y2="1">
<stop offset="0%" stop-color="#ffe6ae"/>
<stop offset="100%" stop-color="#e09a44"/>
</linearGradient>
<radialGradient id="poolcabMoonHalo" cx="50%" cy="50%" r="50%">
<stop offset="0%" stop-color="#e8ecf5" stop-opacity="0.36"/>
<stop offset="100%" stop-color="#e8ecf5" stop-opacity="0"/>
</radialGradient>
<radialGradient id="poolcabMoonSurf" cx="42%" cy="40%" r="70%">
<stop offset="0%" stop-color="#f7f9fe"/>
<stop offset="100%" stop-color="#d7dfee"/>
</radialGradient>
<radialGradient id="poolcabVendGlow" cx="50%" cy="50%" r="50%">
<stop offset="0%" stop-color="#ffb45a" stop-opacity="0.24"/>
<stop offset="100%" stop-color="#ffb45a" stop-opacity="0"/>
</radialGradient>
<radialGradient id="poolcabLanGlow" cx="50%" cy="50%" r="50%">
<stop offset="0%" stop-color="#ffd98a" stop-opacity="0.55"/>
<stop offset="100%" stop-color="#ffd98a" stop-opacity="0"/>
</radialGradient>
<radialGradient id="poolcabTorch" cx="50%" cy="50%" r="50%">
<stop offset="0%" stop-color="#ffb45a" stop-opacity="0.3"/>
<stop offset="100%" stop-color="#ffb45a" stop-opacity="0"/>
</radialGradient>
<radialGradient id="poolcabVign" cx="50%" cy="44%" r="75%">
<stop offset="58%" stop-color="#000" stop-opacity="0"/>
<stop offset="100%" stop-color="#000" stop-opacity="0.42"/>
</radialGradient>
<filter id="poolcabGrain">
<feTurbulence type="fractalNoise" baseFrequency="0.9" numOctaves="2" stitchTiles="stitch"/>
<feColorMatrix type="saturate" values="0"/>
<feComponentTransfer><feFuncA type="linear" slope="0.05"/></feComponentTransfer>
<feComposite operator="over" in2="SourceGraphic"/>
</filter>
<clipPath id="poolcabCanClip"><path d="M0 0 H1600 V230 Q800 264 0 240 Z"/></clipPath>
<clipPath id="poolcabGlassClip"><rect x="1048" y="348" width="130" height="214" rx="6"/></clipPath>
<path id="poolcabFrond" d="M0 0 Q46 -34 108 -26 Q64 -18 46 -10 Q80 -14 118 2 Q66 2 44 5 Q20 5 0 0 Z"/>
<g id="poolcabLng">
<path d="M0 36 L40 6 Q46 2 52 8 L58 26 L192 20 L196 34 L60 40 Z" fill="#39565e"/>
<path d="M10 30 L42 12 M20 33 L50 16 M62 28 L188 22 M62 34 L190 28" stroke="#27424c" stroke-width="3" fill="none"/>
<path d="M16 38 L10 62 M182 34 L188 60 M98 38 V60" stroke="#2c4850" stroke-width="6"/>
<circle cx="188" cy="64" r="6" fill="#20363c"/>
<path d="M0 36 L40 6" stroke="#9db8cc" stroke-width="2" opacity="0.35" fill="none"/>
</g>
</defs>
<!-- ===== night sky seen through the open front ===== -->
<rect width="1600" height="600" fill="url(#poolcabSky)"/>
<g fill="#e6ecf8">
<circle cx="140" cy="340" r="1.6"/><circle cx="210" cy="388" r="1.2"/><circle cx="300" cy="332" r="1.7"/>
<circle cx="390" cy="408" r="1.2"/><circle cx="470" cy="336" r="1.5"/><circle cx="555" cy="372" r="1.3"/>
<circle cx="610" cy="420" r="1.2"/><circle cx="770" cy="332" r="1.6"/><circle cx="840" cy="398" r="1.4"/>
<circle cx="940" cy="344" r="1.6"/><circle cx="520" cy="446" r="1.1"/><circle cx="160" cy="442" r="1.2"/>
</g>
<g stroke="#eef2fa" stroke-width="1.4" opacity="0.8">
<path d="M300 322 v20 M290 332 h20"/><path d="M840 388 v20 M830 398 h20"/>
</g>
<path d="M420 336 q60 -16 128 -6 q48 10 104 2 q-48 24 -124 18 q-66 -4 -108 -14 Z" fill="#0a1630" opacity="0.7"/>
<path d="M850 428 q48 -14 100 -2 q-32 20 -100 12 Z" fill="#0a1630" opacity="0.6"/>
<circle cx="150" cy="374" r="76" fill="url(#poolcabMoonHalo)"/>
<circle cx="150" cy="374" r="34" fill="url(#poolcabMoonSurf)"/>
<g fill="#c7cfe0"><circle cx="139" cy="364" r="8"/><circle cx="165" cy="385" r="5.5"/><circle cx="153" cy="355" r="3.5"/></g>
<g fill="#b2bdd4" opacity="0.7"><circle cx="141" cy="366" r="5"/><circle cx="167" cy="387" r="3.2"/></g>
<!-- hedge + palms beyond the deck rail -->
<g fill="#0c2232">
<path d="M236 470 q-10 -60 -2 -96 l14 2 q-6 40 2 94 Z"/>
<path d="M934 470 q8 -56 0 -92 l-14 2 q6 38 -2 90 Z"/>
</g>
<g fill="#0e2b3d">
<g transform="translate(243 374) scale(0.8)"><use href="#poolcabFrond" transform="rotate(-95)"/><use href="#poolcabFrond" transform="rotate(-55)"/><use href="#poolcabFrond" transform="rotate(-18)"/><use href="#poolcabFrond" transform="rotate(24)"/><use href="#poolcabFrond" transform="rotate(-135) scale(0.85)"/></g>
<g transform="translate(927 378) scale(-0.85,0.85)"><use href="#poolcabFrond" transform="rotate(-95)"/><use href="#poolcabFrond" transform="rotate(-55)"/><use href="#poolcabFrond" transform="rotate(-16)"/><use href="#poolcabFrond" transform="rotate(28)"/></g>
</g>
<g fill="#081c28">
<path d="M478 470 q-4 -30 2 -46 l8 2 q-4 20 2 44 Z"/>
<g transform="translate(484 424) scale(0.45)"><use href="#poolcabFrond" transform="rotate(-70)"/><use href="#poolcabFrond" transform="rotate(-25)"/><use href="#poolcabFrond" transform="rotate(20)"/><use href="#poolcabFrond" transform="rotate(-115) scale(0.9)"/></g>
</g>
<path d="M106 470 Q300 452 480 468 Q660 480 850 462 Q930 456 990 468 V502 Q550 514 106 502 Z" fill="#0d2a1c"/>
<rect x="106" y="496" width="884" height="92" fill="#26443c"/>
<ellipse cx="420" cy="540" rx="220" ry="20" fill="#bcd7e8" opacity="0.07"/>
<ellipse cx="760" cy="562" rx="150" ry="14" fill="#bcd7e8" opacity="0.05"/>
<!-- deck rail -->
<g fill="#241c14">
<rect x="130" y="481" width="9" height="86"/><rect x="230" y="481" width="9" height="86"/><rect x="330" y="481" width="9" height="86"/>
<rect x="430" y="481" width="9" height="86"/><rect x="530" y="481" width="9" height="86"/><rect x="630" y="481" width="9" height="86"/>
<rect x="730" y="481" width="9" height="86"/><rect x="830" y="481" width="9" height="86"/><rect x="930" y="481" width="9" height="86"/>
</g>
<rect x="100" y="538" width="900" height="7" fill="#2a1e12"/>
<rect x="100" y="468" width="900" height="13" fill="#2a1e12"/>
<path d="M100 469 H1000" stroke="#9db8cc" stroke-width="2" opacity="0.35"/>
<!-- east slat wall behind the vending corner -->
<rect x="992" y="240" width="608" height="348" fill="#22342c"/>
<g stroke="#14231c" stroke-width="3">
<path d="M1018 244 V584 M1044 244 V584 M1070 244 V584 M1096 244 V584 M1122 244 V584 M1148 244 V584 M1174 244 V584 M1200 244 V584 M1226 244 V584 M1252 244 V584 M1278 244 V584 M1304 244 V584 M1330 244 V584 M1356 244 V584 M1382 244 V584 M1408 244 V584 M1434 244 V584 M1460 244 V584 M1486 244 V584 M1512 244 V584 M1538 244 V584 M1564 244 V584 M1590 244 V584"/>
</g>
<path d="M992 336 H1600 M992 552 H1600" stroke="#101c16" stroke-width="6"/>
<rect x="992" y="580" width="608" height="12" fill="#17110b"/>
<!-- faded POOL RULES sign -->
<g transform="rotate(-2 1375 415)">
<rect x="1300" y="360" width="150" height="110" rx="4" fill="#b8ad8c" stroke="#6a5a3c" stroke-width="3"/>
<text x="1375" y="386" font-family="Trebuchet MS" font-size="17" font-weight="bold" fill="#4a3a20" text-anchor="middle">POOL RULES</text>
<path d="M1314 400 h122 M1314 414 h110 M1314 428 h118 M1314 442 h96" stroke="#8f825e" stroke-width="2.5"/>
<text x="1375" y="461" font-family="Trebuchet MS" font-size="12" font-weight="bold" fill="#8c2424" text-anchor="middle" transform="rotate(-3 1375 457)">NO PHANTOMS!</text>
<circle cx="1308" cy="368" r="2.5" fill="#5a4a2c"/><circle cx="1442" cy="368" r="2.5" fill="#5a4a2c"/>
</g>
<!-- dusty life ring on the wall -->
<g transform="rotate(6 1516 402)">
<circle cx="1516" cy="402" r="38" fill="none" stroke="#c4c8bf" stroke-width="15"/>
<circle cx="1516" cy="402" r="38" fill="none" stroke="#c04a4a" stroke-width="15" stroke-dasharray="29 30.7"/>
<circle cx="1516" cy="402" r="27" fill="none" stroke="#7c8478" stroke-width="2"/>
<path d="M1516 356 v-14" stroke="#8a7a64" stroke-width="4"/>
<path d="M1478 380 q-14 30 6 52" stroke="#8f8a7c" stroke-width="1.2" opacity="0.35" fill="none"/>
</g>
<!-- west sliver toward the grounds -->
<path d="M0 330 Q40 340 70 336 V600 H0 Z" fill="#0d2016"/>
<circle cx="24" cy="436" r="34" fill="url(#poolcabTorch)"/>
<circle cx="24" cy="436" r="5" fill="#ffd98a" opacity="0.85"/>
<path d="M24 428 q6 8 3 14 q-2 3 -3 4 q-1 -1 -3 -4 q-3 -6 3 -14 Z" fill="#ff9a3a"/>
<!-- ===== cabana deck floor ===== -->
<rect y="578" width="1600" height="322" fill="url(#poolcabFloor)"/>
<rect y="578" width="1600" height="10" fill="#2c1e12"/>
<path d="M0 590 H1600" stroke="#120c06" stroke-width="3"/>
<polygon points="210,592 900,592 740,752 140,752" fill="#bcd7e8" opacity="0.05"/>
<g stroke="#241812" stroke-width="3" opacity="0.8" fill="none">
<path d="M0 606 H1600 M0 636 H1600 M0 670 H1600 M0 710 H1600 M0 756 H1600 M0 808 H1600 M0 866 H1600"/>
</g>
<g stroke="#241812" stroke-width="3" opacity="0.6">
<path d="M240 606 v30 M760 606 v30 M1240 606 v30 M480 636 v34 M980 636 v34 M1440 636 v34 M170 670 v40 M660 670 v40 M1160 670 v40 M400 710 v46 M900 710 v46 M1360 710 v46 M240 756 v52 M800 756 v52 M1280 756 v52 M560 808 v58 M1100 808 v58"/>
</g>
<g fill="#241812" opacity="0.8">
<ellipse cx="330" cy="690" rx="6" ry="4"/><ellipse cx="870" cy="782" rx="7" ry="4.5"/><ellipse cx="1210" cy="742" rx="5" ry="3.5"/>
</g>
<ellipse cx="700" cy="640" rx="380" ry="40" fill="#ffdf9e" opacity="0.04"/>
<!-- pool edge + underwater tile glint at the frame bottom -->
<path d="M0 830 Q330 850 656 900 L0 900 Z" fill="url(#poolcabWater)"/>
<path d="M0 822 Q330 842 664 896" stroke="#7e8468" stroke-width="14" fill="none"/>
<path d="M0 815 Q330 835 660 889" stroke="#a2a888" stroke-width="2.5" fill="none" opacity="0.6"/>
<path d="M0 842 Q330 862 640 908" stroke="#52aab4" stroke-width="6" fill="none" stroke-dasharray="16 12" opacity="0.7"/>
<path d="M4 856 Q300 874 600 912" stroke="#3f96a8" stroke-width="4" fill="none" stroke-dasharray="9 14" opacity="0.55"/>
<path d="M60 878 q30 -8 62 2 q30 8 60 0 M240 894 q28 -8 58 0" stroke="#8adce4" stroke-width="2.5" fill="none" opacity="0.5"/>
<path d="M330 868 h26 M342 856 v24" stroke="#d8f2f8" stroke-width="2" opacity="0.7"/>
<path d="M420 882 h34 M470 892 h22" stroke="#bcd7e8" stroke-width="3" opacity="0.3"/>
<text x="54" y="833" font-family="Trebuchet MS" font-size="12" font-weight="bold" fill="#3a4032" transform="rotate(3 54 833)">3FT</text>
<!-- posts + header beam -->
<rect x="56" y="288" width="1544" height="22" fill="#543d24"/>
<path d="M56 291 H1600" stroke="#7a5c38" stroke-width="3" opacity="0.7"/>
<path d="M180 300 h90 M520 299 h70 M900 301 h80 M1300 300 h90" stroke="#3a2a16" stroke-width="2" opacity="0.7"/>
<rect x="72" y="300" width="30" height="298" fill="#4a3520"/>
<path d="M78 310 v270" stroke="#33241a" stroke-width="3"/>
<path d="M99 306 v280" stroke="#d9b06a" stroke-width="2" opacity="0.25"/>
<rect x="66" y="596" width="42" height="14" rx="3" fill="#33241a"/>
<path d="M102 310 L134 310 L102 342 Z" fill="#3f2c18"/>
<rect x="988" y="300" width="30" height="298" fill="#4a3520"/>
<path d="M994 310 v270" stroke="#33241a" stroke-width="3"/>
<rect x="982" y="596" width="42" height="14" rx="3" fill="#33241a"/>
<path d="M988 310 L956 310 L988 342 Z" fill="#3f2c18"/>
<!-- stacked lounge chairs -->
<ellipse cx="898" cy="626" rx="120" ry="13" fill="#000" opacity="0.32"/>
<use href="#poolcabLng" transform="translate(792 552)"/>
<use href="#poolcabLng" transform="translate(800 512)"/>
<use href="#poolcabLng" transform="translate(810 468) rotate(-2)"/>
<path d="M812 470 q-8 40 -6 84" stroke="#8f8a7c" stroke-width="1.2" opacity="0.3" fill="none"/>
<!-- ===== TOWEL CUBBIES : hotspot 544-768 x 324-594 ===== -->
<ellipse cx="657" cy="600" rx="122" ry="12" fill="#000" opacity="0.32"/>
<rect x="546" y="324" width="222" height="262" fill="#191009"/>
<rect x="546" y="406" width="222" height="12" fill="#4e3d28"/>
<rect x="546" y="488" width="222" height="12" fill="#4e3d28"/>
<path d="M546 418 h222 M546 500 h222" stroke="#1c130a" stroke-width="3"/>
<rect x="616" y="334" width="12" height="242" fill="#43331f"/>
<rect x="688" y="334" width="12" height="242" fill="#43331f"/>
<rect x="546" y="324" width="10" height="262" fill="#4e3d28"/>
<rect x="758" y="324" width="10" height="262" fill="#4e3d28"/>
<rect x="546" y="324" width="222" height="10" fill="#4e3d28"/>
<rect x="546" y="576" width="222" height="10" fill="#43331f"/>
<text x="657" y="333" font-family="Trebuchet MS" font-size="11" font-weight="bold" fill="#8a7a5c" text-anchor="middle" opacity="0.85">TOWELS</text>
<rect x="554" y="586" width="16" height="12" fill="#33241a"/>
<rect x="742" y="586" width="16" height="12" fill="#33241a"/>
<!-- cubby contents -->
<ellipse cx="586" cy="386" rx="27" ry="15" fill="#6b7a64"/>
<circle cx="570" cy="386" r="9" fill="#58685c"/><path d="M566 382 a6 6 0 0 1 8 8" stroke="#47543f" stroke-width="2.5" fill="none"/>
<path d="M576 374 q14 -4 24 4" stroke="#47543f" stroke-width="2.5" fill="none"/>
<ellipse cx="600" cy="394" rx="8" ry="5" fill="#47543f" opacity="0.7"/>
<path d="M632 338 Q652 352 646 372 M632 352 Q648 358 644 374 M660 338 Q652 352 668 362" stroke="#8f8a7c" stroke-width="1.2" opacity="0.3" fill="none"/>
<rect x="704" y="376" width="52" height="10" rx="2" fill="#74846f"/>
<rect x="706" y="386" width="50" height="10" rx="2" fill="#5a6a5e"/>
<rect x="704" y="396" width="52" height="9" rx="2" fill="#67766a"/>
<path d="M704 381 h52 M706 391 h50" stroke="#47543f" stroke-width="1.5" opacity="0.6"/>
<g stroke="#d8d4c4" stroke-width="3" fill="none">
<path d="M566 452 h40 M574 452 v-9 M582 452 v-10 M590 452 v-9 M598 452 v-8 M574 452 v9 M582 452 v10 M590 452 v9"/>
</g>
<path d="M606 444 l16 8 l-16 8 Z" fill="#d8d4c4"/>
<circle cx="613" cy="451" r="1.8" fill="#191009"/>
<path d="M566 452 l-11 -9 v18 Z" fill="#d8d4c4"/>
<g transform="rotate(-24 658 462)">
<ellipse cx="658" cy="462" rx="15" ry="27" fill="#c05a3a"/>
<ellipse cx="658" cy="462" rx="10.5" ry="22" fill="#d87a52"/>
<path d="M658 448 l-8 12 M658 448 l8 12" stroke="#7a3020" stroke-width="3.5" fill="none"/>
<circle cx="658" cy="448" r="2.5" fill="#7a3020"/>
</g>
<ellipse cx="730" cy="464" rx="24" ry="13" fill="#4e5c54"/>
<circle cx="716" cy="464" r="8" fill="#3d4a44"/><path d="M722 454 q14 -3 22 5" stroke="#38443e" stroke-width="2.5" fill="none"/>
<path d="M560 556 q12 -10 30 -6 q10 8 2 14 l-30 2 Z" fill="#0d0a06"/>
<ellipse cx="586" cy="566" rx="22" ry="6" fill="#8a7a5c" opacity="0.12"/>
<path d="M636 540 q22 -20 44 -4 q10 14 -4 24 q-24 8 -40 2 Z" fill="#7a8a7c"/>
<path d="M642 546 q16 -10 30 -2 M640 558 q18 6 32 0" stroke="#5a6a5e" stroke-width="2.5" fill="none"/>
<path d="M642 564 q12 20 -2 34 q-8 6 -12 2 q-2 -20 6 -36 Z" fill="#7a8a7c"/>
<path d="M638 572 q4 12 -2 22" stroke="#5a6a5e" stroke-width="2.5" fill="none"/>
<path d="M704 508 Q726 524 718 546 M704 524 Q722 530 716 548 M736 508 Q726 524 746 536" stroke="#8f8a7c" stroke-width="1.2" opacity="0.3" fill="none"/>
<circle cx="724" cy="536" r="3" fill="#2c2115"/>
<path d="M724 512 v21" stroke="#8f8a7c" stroke-width="1" opacity="0.4"/>
<path d="M547 330 V580" stroke="#9db8cc" stroke-width="2" opacity="0.22"/>
<!-- ===== LIFEGUARD STAND + chained LOGBOOK : hotspot 160-416 x 450-594 ===== -->
<ellipse cx="300" cy="606" rx="120" ry="13" fill="#000" opacity="0.34"/>
<path d="M252 592 L286 432" stroke="#6e766c" stroke-width="10"/>
<path d="M334 432 L348 500 L342 512 L352 504 L356 522" stroke="#6e766c" stroke-width="9" fill="none"/>
<path d="M356 590 L420 574" stroke="#6a7268" stroke-width="9"/>
<path d="M418 570 l10 -4 M416 580 l8 4" stroke="#6a7268" stroke-width="3"/>
<path d="M232 600 L268 428" stroke="#b2b9b0" stroke-width="13"/>
<path d="M368 600 L332 428" stroke="#b2b9b0" stroke-width="13"/>
<path d="M240 570 q3 -20 7 -34 M358 556 q-4 -22 -8 -38" stroke="#5c7a5c" stroke-width="3" opacity="0.5" fill="none"/>
<path d="M259 470 H341 M252 505 H348 M245 540 H355 M237 575 H363" stroke="#a8b0a8" stroke-width="9"/>
<path d="M259 474 H341 M252 509 H348 M245 544 H355 M237 579 H363" stroke="#5a625a" stroke-width="2.5" opacity="0.6"/>
<path d="M236 596 h-10 M374 596 h10" stroke="#8a927f" stroke-width="4"/>
<g transform="rotate(-3 300 418)">
<rect x="248" y="408" width="104" height="16" rx="3" fill="#b2b9b0"/>
<path d="M248 412 h104" stroke="#7c847c" stroke-width="2"/>
<rect x="256" y="394" width="92" height="14" rx="3" fill="#9aa39a"/>
<rect x="262" y="328" width="16" height="70" fill="#b2b9b0"/>
<rect x="282" y="328" width="16" height="70" fill="#a8b0a8"/>
<rect x="302" y="328" width="16" height="70" fill="#b2b9b0"/>
<rect x="322" y="328" width="16" height="70" fill="#a8b0a8"/>
<rect x="258" y="320" width="88" height="9" rx="4" fill="#b2b9b0"/>
<circle cx="301" cy="362" r="13" fill="#d8d8d0"/>
<path d="M295 358 h12 v-6 h-12 z" fill="#c04a4a" transform="rotate(90 301 362)"/>
<rect x="295" y="359" width="12" height="6" fill="#c04a4a"/>
<path d="M262 336 l32 54" stroke="#8a927f" stroke-width="2" opacity="0.5"/>
</g>
<path d="M340 430 q12 34 6 68" stroke="#8f959c" stroke-width="4" fill="none" stroke-dasharray="6 4"/>
<circle cx="344" cy="452" r="2.5" fill="#8f959c"/><circle cx="348" cy="478" r="2.5" fill="#8f959c"/>
<g transform="rotate(-7 350 522)">
<rect x="320" y="500" width="62" height="44" rx="4" fill="#3e5570" stroke="#26364a" stroke-width="3"/>
<ellipse cx="333" cy="512" rx="10" ry="6" fill="#5c7a5c" opacity="0.6"/>
<ellipse cx="368" cy="534" rx="7" ry="4" fill="#5c7a5c" opacity="0.5"/>
<text x="351" y="528" font-family="Trebuchet MS" font-size="13" font-weight="bold" fill="#cfe0e8" text-anchor="middle">LOG</text>
<rect x="322" y="540" width="58" height="5" fill="#d8cba4"/>
<path d="M322 543 h58" stroke="#b0a37e" stroke-width="1.5"/>
</g>
<g transform="rotate(-8 204 560)">
<circle cx="204" cy="560" r="26" fill="none" stroke="#c4c8bf" stroke-width="14"/>
<circle cx="204" cy="560" r="26" fill="none" stroke="#c04a4a" stroke-width="14" stroke-dasharray="20 20.8"/>
<circle cx="204" cy="560" r="17" fill="none" stroke="#7c8478" stroke-width="2"/>
</g>
<!-- leaves blown in from the grounds -->
<ellipse cx="180" cy="642" rx="10" ry="5" fill="#7c9a3a" transform="rotate(-14 180 642)"/>
<ellipse cx="220" cy="654" rx="9" ry="4.5" fill="#8a6636" transform="rotate(10 220 654)"/>
<ellipse cx="560" cy="622" rx="9" ry="4.5" fill="#4a8f5c" transform="rotate(-8 560 622)"/>
<ellipse cx="470" cy="760" rx="10" ry="5" fill="#a8552e" transform="rotate(16 470 760)"/>
<!-- ===== VENDING MACHINE : hotspot 1024-1248 x 270-684 ===== -->
<ellipse cx="1136" cy="470" rx="250" ry="300" fill="url(#poolcabVendGlow)"/>
<ellipse cx="1136" cy="694" rx="125" ry="14" fill="#000" opacity="0.38"/>
<rect x="1036" y="288" width="200" height="396" rx="10" fill="#6e2130"/>
<path d="M1042 292 q94 -10 188 0" stroke="#ffd7a0" stroke-width="2.5" fill="none" opacity="0.3"/>
<rect x="1044" y="296" width="184" height="380" rx="8" fill="none" stroke="#93313d" stroke-width="3"/>
<ellipse cx="1136" cy="322" rx="130" ry="46" fill="url(#poolcabLanGlow)" opacity="0.4"/>
<rect x="1050" y="302" width="172" height="40" rx="5" fill="#2a0d12"/>
<rect x="1056" y="308" width="160" height="28" rx="4" fill="url(#poolcabHead)"/>
<text x="1136" y="329" font-family="Trebuchet MS" font-size="21" font-weight="bold" fill="#6b2508" text-anchor="middle">SCOOBY SNAX</text>
<!-- glass front -->
<rect x="1048" y="348" width="130" height="214" rx="6" fill="#150e20"/>
<g clip-path="url(#poolcabGlassClip)">
<rect x="1052" y="352" width="122" height="30" fill="#ffcf8a" opacity="0.08"/>
<rect x="1052" y="384" width="122" height="6" fill="#000" opacity="0.35"/>
<rect x="1052" y="422" width="122" height="6" fill="#000" opacity="0.35"/>
<rect x="1052" y="460" width="122" height="6" fill="#000" opacity="0.35"/>
<rect x="1052" y="498" width="122" height="6" fill="#000" opacity="0.35"/>
<path d="M1052 386 h122 M1052 424 h122 M1052 462 h122 M1052 500 h122" stroke="#241a30" stroke-width="2"/>
<!-- row 1 -->
<rect x="1056" y="356" width="30" height="24" rx="3" fill="#d98f2b"/><rect x="1056" y="356" width="30" height="9" rx="3" fill="#b06f1c"/>
<rect x="1092" y="356" width="30" height="24" rx="3" fill="#4a8fd9"/><rect x="1092" y="356" width="30" height="9" rx="3" fill="#3a6ea8"/>
<rect x="1128" y="356" width="30" height="24" rx="3" fill="#57a35c"/><rect x="1128" y="356" width="30" height="9" rx="3" fill="#3f7c46"/>
<!-- row 2 -->
<rect x="1056" y="394" width="30" height="24" rx="3" fill="#c95c8f"/><rect x="1056" y="394" width="30" height="9" rx="3" fill="#a4436e"/>
<rect x="1092" y="394" width="30" height="24" rx="3" fill="#e8b73a"/><rect x="1092" y="394" width="30" height="9" rx="3" fill="#c99b28"/><circle cx="1107" cy="410" r="4" fill="#7a4b12"/>
<rect x="1128" y="394" width="30" height="24" rx="3" fill="#d98f2b"/><rect x="1128" y="394" width="30" height="9" rx="3" fill="#b06f1c"/>
<!-- row 3: one Snax box left, EMPTY slot right (dangling-box overlay hangs there) -->
<rect x="1056" y="432" width="30" height="24" rx="3" fill="#e8b73a"/><rect x="1056" y="432" width="30" height="9" rx="3" fill="#c99b28"/><circle cx="1071" cy="448" r="4" fill="#7a4b12"/>
<circle cx="1128" cy="452" r="10" fill="none" stroke="#6a6a74" stroke-width="3"/>
<!-- row 4: cans -->
<rect x="1058" y="470" width="15" height="26" rx="5" fill="#c04a4a"/><rect x="1082" y="470" width="15" height="26" rx="5" fill="#4a8fd9"/>
<rect x="1118" y="470" width="15" height="26" rx="5" fill="#57a35c"/><rect x="1142" y="470" width="15" height="26" rx="5" fill="#8a8a94"/>
<path d="M1062 474 v18 M1086 474 v18 M1122 474 v18 M1146 474 v18" stroke="#fff" stroke-width="1.5" opacity="0.3"/>
<!-- spirals -->
<circle cx="1071" cy="380" r="7" fill="none" stroke="#6a6a74" stroke-width="3"/>
<circle cx="1107" cy="380" r="7" fill="none" stroke="#6a6a74" stroke-width="3"/>
<circle cx="1143" cy="380" r="7" fill="none" stroke="#6a6a74" stroke-width="3"/>
<circle cx="1071" cy="418" r="7" fill="none" stroke="#6a6a74" stroke-width="3"/>
<circle cx="1107" cy="418" r="7" fill="none" stroke="#6a6a74" stroke-width="3"/>
<circle cx="1143" cy="418" r="7" fill="none" stroke="#6a6a74" stroke-width="3"/>
<circle cx="1071" cy="456" r="7" fill="none" stroke="#6a6a74" stroke-width="3"/>
<rect x="1048" y="506" width="130" height="56" fill="#0a0714" opacity="0.8"/>
<rect x="1048" y="348" width="12" height="214" fill="#000" opacity="0.35"/>
<path d="M1048 520 L1178 396 L1178 370 L1048 494 Z" fill="#cfe0ff" opacity="0.1"/>
<path d="M1048 462 L1178 340 L1178 326 L1048 448 Z" fill="#cfe0ff" opacity="0.07"/>
</g>
<rect x="1048" y="348" width="130" height="214" rx="6" fill="none" stroke="#8a95a2" stroke-width="2.5"/>
<!-- controls -->
<rect x="1186" y="356" width="42" height="210" rx="6" fill="#571620"/>
<rect x="1198" y="372" width="18" height="26" rx="3" fill="#26262e"/>
<path d="M1207 378 v14" stroke="#0c0c10" stroke-width="4"/>
<rect x="1192" y="414" width="30" height="40" rx="4" fill="#191921"/>
<g fill="#3d3d48"><circle cx="1201" cy="424" r="3"/><circle cx="1213" cy="424" r="3"/><circle cx="1201" cy="436" r="3"/><circle cx="1213" cy="436" r="3"/><circle cx="1201" cy="448" r="3"/><circle cx="1213" cy="448" r="3"/></g>
<circle cx="1207" cy="472" r="9" fill="#ff6a5a" opacity="0.25"/>
<circle cx="1207" cy="472" r="4" fill="#ff6a5a"><animate attributeName="opacity" values="1;0.35;1" dur="2.4s" repeatCount="indefinite"/></circle>
<rect x="1194" y="496" width="26" height="14" rx="3" fill="#26262e"/>
<!-- faded panel art + dispenser (dropped-box overlay lands on the tray) -->
<rect x="1048" y="572" width="130" height="30" rx="4" fill="#571620"/>
<path d="M1060 596 q18 -8 36 0 q18 8 38 0 q16 -6 30 0" stroke="#d8a86a" stroke-width="2.5" fill="none" opacity="0.25"/>
<circle cx="1078" cy="586" r="9" fill="#e8c07c" opacity="0.22"/>
<rect x="1044" y="610" width="138" height="58" rx="8" fill="#08050e"/>
<rect x="1054" y="618" width="118" height="42" rx="4" fill="#150d1a" stroke="#2a1c30" stroke-width="2"/>
<text x="1113" y="644" font-family="Trebuchet MS" font-size="12" font-weight="bold" fill="#4e4258" text-anchor="middle">PUSH</text>
<path d="M1058 656 q55 -10 110 0" stroke="#241a30" stroke-width="3" fill="none"/>
<rect x="1044" y="672" width="184" height="10" fill="#38121c"/>
<rect x="1052" y="680" width="26" height="6" rx="2" fill="#2a0d12"/>
<rect x="1188" y="680" width="26" height="6" rx="2" fill="#2a0d12"/>
<path d="M1236 656 q42 20 66 16" stroke="#1a0f12" stroke-width="5" fill="none"/>
<ellipse cx="1136" cy="700" rx="175" ry="26" fill="url(#poolcabVendGlow)"/>
<!-- ===== tiki bar counter (foreground east) ===== -->
<ellipse cx="1430" cy="892" rx="185" ry="16" fill="#000" opacity="0.3"/>
<path d="M1252 702 L1600 678 L1600 900 L1252 900 Z" fill="#4c3824"/>
<g stroke="#2f2214" stroke-width="3">
<path d="M1280 704 V900 M1308 702 V900 M1336 700 V900 M1364 698 V900 M1392 696 V900 M1420 694 V900 M1448 692 V900 M1476 690 V900 M1504 688 V900 M1532 686 V900 M1560 684 V900 M1588 682 V900"/>
</g>
<path d="M1256 750 L1600 726" stroke="#6b4a26" stroke-width="5" fill="none"/>
<path d="M1258 746 l14 10 m-14 0 l14 -10" stroke="#8a6636" stroke-width="2.5"/>
<g transform="rotate(-2 1447 769)">
<rect x="1372" y="742" width="150" height="54" rx="6" fill="#6b4a26" stroke="#3a2410" stroke-width="3"/>
<text x="1447" y="776" font-family="Trebuchet MS" font-size="20" font-weight="bold" fill="#e8c07c" text-anchor="middle">TIKI BAR</text>
</g>
<!-- padlocked STAFF cabinet door on the bar front -->
<g id="poolcab_staff_door">
<rect x="1276" y="768" width="88" height="124" rx="3" fill="#5a442c" stroke="#3a2410" stroke-width="4"/>
<path d="M1300 772 V888 M1322 772 V888 M1344 772 V888" stroke="#3a2410" stroke-width="2" opacity="0.6"/>
<path d="M1283 772 V888" stroke="#7a5c3a" stroke-width="2" opacity="0.4"/>
<rect x="1272" y="788" width="11" height="18" rx="2" fill="#2a2622"/>
<rect x="1272" y="850" width="11" height="18" rx="2" fill="#2a2622"/>
<path d="M1275 793 h5 M1275 801 h5 M1275 855 h5 M1275 863 h5" stroke="#4a4a52" stroke-width="1.5"/>
<text x="1320" y="808" font-family="Trebuchet MS" font-size="15" font-weight="bold" fill="#b8ad8c" text-anchor="middle" opacity="0.85" letter-spacing="2">STAFF</text>
<rect x="1336" y="818" width="24" height="8" rx="2" fill="#8a8a94"/>
<circle cx="1341" cy="822" r="1.5" fill="#4a4a52"/>
<path d="M1346 828 v-4 a6 6 0 0 1 12 0 v4" stroke="#8a7a5c" stroke-width="3.5" fill="none"/>
<rect x="1342" y="826" width="20" height="16" rx="3" fill="#e8b73a"/>
<path d="M1342 831 h20" stroke="#c99b28" stroke-width="2"/>
<circle cx="1352" cy="835" r="2.2" fill="#7a4b12"/>
<path d="M1352 835 v3.5" stroke="#7a4b12" stroke-width="1.5"/>
</g>
<path d="M1252 664 L1600 640 L1600 678 L1252 702 Z" fill="#5a442c"/>
<path d="M1252 664 L1600 640 L1600 654 L1252 678 Z" fill="#7a5c3a"/>
<path d="M1252 664 L1600 640" stroke="#d9b06a" stroke-width="2.5" opacity="0.4"/>
<!-- dusty glasses -->
<path d="M1290 618 L1312 618 L1308 662 L1294 662 Z" fill="#cfe0ff" opacity="0.16"/>
<path d="M1290 618 L1312 618 L1308 662 L1294 662 Z" fill="none" stroke="#9fb8cc" stroke-width="2" opacity="0.5"/>
<ellipse cx="1301" cy="656" rx="6" ry="3" fill="#b8ad8c" opacity="0.55"/>
<path d="M1320 630 L1338 630 L1335 664 L1323 664 Z" fill="#cfe0ff" opacity="0.16"/>
<path d="M1320 630 L1338 630 L1335 664 L1323 664 Z" fill="none" stroke="#9fb8cc" stroke-width="2" opacity="0.5"/>
<path d="M1312 622 Q1320 612 1330 626" stroke="#8f8a7c" stroke-width="1.2" opacity="0.35" fill="none"/>
<!-- tiki mugs -->
<rect x="1348" y="612" width="26" height="46" rx="6" fill="#7a4a2a"/>
<path d="M1352 624 h7 m5 0 h7 M1353 638 l5 4 5 -4 5 4 5 -4" stroke="#3a2410" stroke-width="2.5" fill="none"/>
<path d="M1350 618 h22" stroke="#a8794a" stroke-width="2"/>
<rect x="1382" y="622" width="24" height="38" rx="6" fill="#5c6a3a"/>
<path d="M1386 632 h6 m4 0 h6 M1387 644 l4 3 4 -3 4 3 4 -3" stroke="#2c3a1c" stroke-width="2.5" fill="none"/>
<!-- toppled blender -->
<path d="M1426 636 L1482 636 L1488 664 L1420 664 Z" fill="#cfe0ff" opacity="0.2"/>
<path d="M1426 636 L1482 636 L1488 664 L1420 664 Z" fill="none" stroke="#9fb8cc" stroke-width="2" opacity="0.55"/>
<path d="M1438 638 v24 M1456 638 v24 M1472 638 v25" stroke="#9fb8cc" stroke-width="1.5" opacity="0.35"/>
<path d="M1420 660 q-16 8 -24 6" stroke="#6a8a4a" stroke-width="5" fill="none" opacity="0.8"/>
<ellipse cx="1404" cy="668" rx="9" ry="4" fill="#3a3a42"/>
<rect x="1500" y="606" width="54" height="44" rx="6" fill="#c8b89a"/>
<rect x="1500" y="606" width="54" height="10" rx="5" fill="#8a7a5c"/>
<circle cx="1514" cy="636" r="3.5" fill="#8c2424"/><circle cx="1527" cy="636" r="3.5" fill="#3a3a42"/><circle cx="1540" cy="636" r="3.5" fill="#3a3a42"/>
<path d="M1494 618 Q1500 604 1510 610" stroke="#8f8a7c" stroke-width="1.2" opacity="0.3" fill="none"/>
<!-- paper lantern string, one glowing weakly -->
<path d="M100 314 Q550 352 1000 316" stroke="#2a2622" stroke-width="2.5" fill="none"/>
<path d="M210 327 v27 M470 342 v32 M850 333 v17" stroke="#2a2622" stroke-width="2"/>
<circle cx="210" cy="372" r="18" fill="#7c6a5a"/>
<path d="M196 364 a18 18 0 0 1 28 0 M194 378 a18 14 0 0 0 32 0" stroke="#5c4e42" stroke-width="2" fill="none"/>
<rect x="204" y="352" width="12" height="5" rx="2" fill="#3a3028"/><rect x="205" y="388" width="10" height="4" rx="2" fill="#3a3028"/>
<circle cx="470" cy="398" r="56" fill="url(#poolcabLanGlow)" opacity="0.55">
<animate attributeName="opacity" values="0.4;0.62;0.46;0.58;0.4" dur="5s" repeatCount="indefinite"/>
</circle>
<circle cx="470" cy="398" r="24" fill="#e8c07c"/>
<path d="M452 388 a24 24 0 0 1 36 0 M449 406 a24 18 0 0 0 42 0" stroke="#b8905a" stroke-width="2.5" fill="none"/>
<path d="M462 380 q8 -4 16 0" stroke="#f7e3b2" stroke-width="2.5" fill="none" opacity="0.8"/>
<rect x="463" y="372" width="14" height="5" rx="2" fill="#6b4a26"/><rect x="464" y="420" width="12" height="5" rx="2" fill="#6b4a26"/>
<ellipse cx="470" cy="700" rx="140" ry="24" fill="#ffd98a" opacity="0.09"/>
<circle cx="850" cy="370" r="20" fill="#5c6a78"/>
<path d="M834 361 a20 20 0 0 1 32 0 M832 377 a20 15 0 0 0 36 0" stroke="#46525e" stroke-width="2" fill="none"/>
<path d="M856 356 l10 14 -14 4 Z" fill="#2b333d"/>
<rect x="843" y="348" width="14" height="5" rx="2" fill="#3a3028"/>
<!-- fireflies -->
<g fill="#d9f27e">
<circle cx="120" cy="520" r="2.2"/><circle cx="520" cy="505" r="2" opacity="0.75"/><circle cx="760" cy="540" r="1.8" opacity="0.6"/><circle cx="950" cy="500" r="2" opacity="0.8"/>
</g>
<g fill="#d9f27e" opacity="0.12"><circle cx="120" cy="520" r="7"/><circle cx="950" cy="500" r="6"/></g>
<!-- ===== striped canvas canopy overhead ===== -->
<path d="M0 0 H1600 V230 Q800 264 0 240 Z" fill="#545e6a"/>
<g clip-path="url(#poolcabCanClip)">
<rect x="96" width="96" height="300" fill="#3d4650"/>
<rect x="288" width="96" height="300" fill="#3d4650"/>
<rect x="480" width="96" height="300" fill="#4e6a66"/>
<rect x="672" width="96" height="300" fill="#3d4650"/>
<rect x="864" width="96" height="300" fill="#3d4650"/>
<rect x="1056" width="96" height="300" fill="#3d4650"/>
<rect x="1248" width="96" height="300" fill="#6a4c4a"/>
<rect x="1440" width="96" height="300" fill="#3d4650"/>
<path d="M192 0 V300 M576 0 V300 M960 0 V300 M1344 0 V300" stroke="#2b333d" stroke-width="2" opacity="0.6"/>
<ellipse cx="400" cy="252" rx="240" ry="34" fill="#161c26" opacity="0.35"/>
<ellipse cx="900" cy="258" rx="260" ry="36" fill="#161c26" opacity="0.35"/>
<ellipse cx="1350" cy="246" rx="220" ry="30" fill="#161c26" opacity="0.3"/>
<path d="M120 40 Q400 90 700 60 M900 70 Q1200 100 1500 56" stroke="#79828e" stroke-width="3" fill="none" opacity="0.25"/>
<ellipse cx="310" cy="118" rx="34" ry="16" fill="#333f36" opacity="0.5"/>
<ellipse cx="1108" cy="88" rx="28" ry="13" fill="#333f36" opacity="0.45"/>
<ellipse cx="748" cy="182" rx="24" ry="11" fill="#333f36" opacity="0.4"/>
<path d="M872 164 L906 154 L948 172 L936 202 L952 232 L898 226 L880 196 Z" fill="#0a1128"/>
<circle cx="916" cy="188" r="1.6" fill="#e6ecf8"/>
<path d="M872 164 L906 154 L948 172 L936 202 L952 232 L898 226 L880 196 Z" fill="none" stroke="#8592a2" stroke-width="2" opacity="0.35"/>
<path d="M898 226 l-6 10 M936 202 l10 4 M906 154 l2 -8" stroke="#79828e" stroke-width="1.5" opacity="0.5"/>
</g>
<path d="M0 212 Q800 240 1600 206 L1600 238 a50 26 0 0 1 -100 6 a50 26 0 0 1 -100 6 a50 26 0 0 1 -100 6 a50 26 0 0 1 -100 4 a50 26 0 0 1 -100 2 a50 26 0 0 1 -100 2 a50 26 0 0 1 -100 0 a50 26 0 0 1 -100 0 a50 26 0 0 1 -100 -2 a50 26 0 0 1 -100 -2 a50 26 0 0 1 -100 -4 a50 26 0 0 1 -100 -2 a50 26 0 0 1 -100 -6 a50 26 0 0 1 -100 -8 a50 26 0 0 1 -100 -6 a50 26 0 0 1 -100 -4 Z" fill="#323c48"/>
<path d="M0 212 Q800 240 1600 206" stroke="#79828e" stroke-width="2" fill="none" opacity="0.3"/>
<!-- torn flap swinging in the night breeze -->
<g>
<animateTransform attributeName="transform" type="rotate" values="-3 912 288;4 912 288;-3 912 288" dur="4.2s" repeatCount="indefinite"/>
<path d="M884 282 L948 288 L938 336 Q930 362 914 372 L902 344 L890 318 Z" fill="#3a4652"/>
<path d="M906 292 Q914 330 916 358" stroke="#2b333d" stroke-width="7" fill="none"/>
<path d="M948 288 L938 336 Q930 362 914 372" stroke="#8592a2" stroke-width="2.5" opacity="0.5" fill="none"/>
<path d="M914 372 l-4 -12 M902 344 l-7 -9" stroke="#79828e" stroke-width="1.5" opacity="0.5"/>
</g>
<!-- canopy-corner cobweb -->
<path d="M60 296 Q110 316 150 296 M60 330 Q104 324 134 300 M84 296 Q88 328 68 344" stroke="#8f8a7c" stroke-width="1.2" opacity="0.28" fill="none"/>
<rect width="1600" height="900" filter="url(#poolcabGrain)" opacity="0.3"/>
<rect width="1600" height="900" fill="url(#poolcabVign)"/>
</svg>
