<svg xmlns="http://www.w3.org/2000/svg" width="1600" height="900" viewBox="0 0 1600 900">
  <defs>
    <linearGradient id="r217wall" x1="0" y1="0" x2="0" y2="1">
      <stop offset="0%" stop-color="#231c40"/>
      <stop offset="45%" stop-color="#352a58"/>
      <stop offset="100%" stop-color="#463869"/>
    </linearGradient>
    <linearGradient id="r217floor" x1="0" y1="0" x2="0" y2="1">
      <stop offset="0%" stop-color="#6b5138"/>
      <stop offset="45%" stop-color="#4a3624"/>
      <stop offset="100%" stop-color="#271a10"/>
    </linearGradient>
    <linearGradient id="r217brass" x1="0" y1="0" x2="0" y2="1">
      <stop offset="0%" stop-color="#ecca6e"/>
      <stop offset="55%" stop-color="#c9a24a"/>
      <stop offset="100%" stop-color="#8f6b24"/>
    </linearGradient>
    <radialGradient id="r217moon" cx="50%" cy="50%" r="60%">
      <stop offset="0%" stop-color="#cfe0ff" stop-opacity="0.55"/>
      <stop offset="100%" stop-color="#cfe0ff" stop-opacity="0"/>
    </radialGradient>
    <radialGradient id="r217candleG" cx="50%" cy="50%" r="55%">
      <stop offset="0%" stop-color="#ffbe57" stop-opacity="0.5"/>
      <stop offset="100%" stop-color="#ffbe57" stop-opacity="0"/>
    </radialGradient>
    <radialGradient id="r217greenG" cx="50%" cy="50%" r="55%">
      <stop offset="0%" stop-color="#4ade80" stop-opacity="0.4"/>
      <stop offset="100%" stop-color="#4ade80" stop-opacity="0"/>
    </radialGradient>
    <radialGradient id="r217glass" cx="42%" cy="36%" r="80%">
      <stop offset="0%" stop-color="#93a8bd"/>
      <stop offset="60%" stop-color="#55647a"/>
      <stop offset="100%" stop-color="#333e52"/>
    </radialGradient>
    <radialGradient id="r217vign" cx="50%" cy="44%" r="74%">
      <stop offset="55%" stop-color="#000" stop-opacity="0"/>
      <stop offset="100%" stop-color="#000" stop-opacity="0.42"/>
    </radialGradient>
    <pattern id="r217fan" width="100" height="120" patternUnits="userSpaceOnUse">
      <g fill="none" stroke="#6d5c9c" stroke-width="2" opacity="0.45">
        <path d="M12 110 a38 38 0 0 1 76 0"/>
        <path d="M30 110 a20 20 0 0 1 40 0"/>
        <path d="M50 110 V74 M50 110 L28 84 M50 110 L72 84 M50 110 L17 98 M50 110 L83 98"/>
        <path d="M-38 50 a38 38 0 0 1 76 0 M62 50 a38 38 0 0 1 76 0"/>
        <path d="M0 50 V22 M0 50 L20 27 M100 50 V22 M100 50 L80 27"/>
      </g>
      <circle cx="50" cy="66" r="3" fill="#c9a24a" opacity="0.35"/>
      <circle cx="0" cy="14" r="3" fill="#c9a24a" opacity="0.28"/>
      <circle cx="100" cy="14" r="3" fill="#c9a24a" opacity="0.28"/>
    </pattern>
    <filter id="r217grain">
      <feTurbulence type="fractalNoise" baseFrequency="0.9" numOctaves="2" stitchTiles="stitch"/>
      <feColorMatrix type="saturate" values="0"/>
      <feComponentTransfer><feFuncA type="linear" slope="0.05"/></feComponentTransfer>
      <feComposite operator="over" in2="SourceGraphic"/>
    </filter>
  </defs>

  <!-- ============ walls / floor ============ -->
  <rect width="1600" height="620" fill="url(#r217wall)"/>
  <rect x="0" y="26" width="1600" height="570" fill="url(#r217fan)"/>
  <!-- crown molding -->
  <rect width="1600" height="18" fill="#57487f"/>
  <path d="M0 18 H1600" stroke="#6d5c9c" stroke-width="3"/>
  <path d="M0 25 H1600" stroke="#473a68" stroke-width="8" stroke-dasharray="14 10"/>
  <path d="M0 32 H1600" stroke="#c9a24a" stroke-width="1.6" opacity="0.35"/>
  <!-- wallpaper seams + peeling curls -->
  <g stroke="#1a1430" stroke-width="3" opacity="0.35">
    <path d="M200 26 V596 M400 26 V596 M800 26 V596 M1000 26 V596 M1200 26 V596 M1400 26 V596"/>
  </g>
  <path d="M200 26 q28 62 -10 98 l42 -14 q-18 46 10 60 l-50 12 Z" fill="#191331" opacity="0.9"/>
  <path d="M196 118 q22 -10 34 4" stroke="#7d6fa8" stroke-width="4" fill="none" opacity="0.7"/>
  <path d="M1400 300 q24 44 0 84 l32 -10 q-10 32 12 46 l-44 8 Z" fill="#191331" opacity="0.85"/>
  <path d="M1398 380 q18 -8 28 2" stroke="#7d6fa8" stroke-width="4" fill="none" opacity="0.6"/>
  <path d="M1000 26 q20 40 -8 66 l30 -8 q-12 30 8 40 l-38 8 Z" fill="#191331" opacity="0.8"/>
  <!-- baseboard -->
  <rect y="596" width="1600" height="24" fill="#241b41"/>
  <path d="M0 598 H1600" stroke="#6d5c9c" stroke-width="2.4" opacity="0.7"/>
  <rect y="620" width="1600" height="280" fill="url(#r217floor)"/>
  <rect y="620" width="1600" height="12" fill="#160e20" opacity="0.75"/>
  <!-- floorboards -->
  <g stroke="#1c120a" opacity="0.4">
    <path d="M0 648 H1600" stroke-width="2"/>
    <path d="M0 682 H1600" stroke-width="2.4"/>
    <path d="M0 724 H1600" stroke-width="2.8"/>
    <path d="M0 776 H1600" stroke-width="3.2"/>
    <path d="M0 838 H1600" stroke-width="3.8"/>
    <path d="M170 648 v34 M560 682 v42 M960 648 v34 M1240 724 v52 M420 776 v62 M1120 838 v62 M760 724 v52 M1460 682 v42"/>
  </g>
  <!-- west passage back to the office (nav west) -->
  <rect x="0" y="88" width="58" height="530" fill="#120c20"/>
  <g stroke="#1d1332" stroke-width="4"><path d="M16 96 V612 M36 92 V616"/></g>
  <rect x="56" y="82" width="12" height="538" fill="#312655"/>
  <path d="M0 620 L70 620 L88 690 L0 702 Z" fill="#0d0816" opacity="0.4"/>
  <!-- cobwebs -->
  <g stroke="#cfd8ea" fill="none" opacity="0.12">
    <path d="M68 30 q70 10 100 62 M68 74 q48 8 70 46 M96 30 q30 34 34 76" stroke-width="2"/>
    <path d="M1530 30 q-50 12 -66 58 M1560 30 q-24 30 -28 66" stroke-width="2"/>
  </g>

  <!-- ============ brass 217 plaque ============ -->
  <rect x="636" y="54" width="128" height="82" rx="10" fill="#1c1533"/>
  <rect x="646" y="62" width="108" height="66" rx="6" fill="url(#r217brass)" stroke="#6e5218" stroke-width="2.5"/>
  <rect x="654" y="69" width="92" height="52" rx="4" fill="none" stroke="#8f6b24" stroke-width="1.8"/>
  <text x="700" y="112" font-family="Trebuchet MS" font-size="40" font-weight="bold" fill="#3b2a0e" text-anchor="middle">217</text>
  <text x="700" y="110.5" font-family="Trebuchet MS" font-size="40" font-weight="bold" fill="#f6e2a2" text-anchor="middle" opacity="0.35">217</text>
  <g fill="#7a5c22" stroke="#4c3a12" stroke-width="1">
    <circle cx="654" cy="70" r="3.5"/><circle cx="746" cy="70" r="3.5"/>
    <circle cx="654" cy="120" r="3.5"/><circle cx="746" cy="120" r="3.5"/>
  </g>
  <path d="M651 70 h6 M743 68 l6 4 M651 120 h6 M744 117 l5 5" stroke="#2e2208" stroke-width="1.2"/>
  <!-- small oval portrait, forgotten luxury -->
  <ellipse cx="856" cy="228" rx="24" ry="31" fill="#2a2f45" stroke="#8a6c33" stroke-width="6"/>
  <path d="M846 244 q10 -18 20 0 q-4 -26 -10 -26 q-6 0 -10 26" fill="#141824"/>
  <ellipse cx="856" cy="222" rx="6" ry="7" fill="#141824"/>
  <path d="M840 208 q14 -12 30 -2" stroke="#cfd8ea" stroke-width="2" opacity="0.2" fill="none"/>

  <!-- ============ boarded window + moonlight ============ -->
  <rect x="418" y="138" width="254" height="324" rx="8" fill="#241a3a"/>
  <rect x="430" y="150" width="230" height="300" rx="5" fill="#0e1830"/>
  <circle cx="548" cy="268" r="132" fill="url(#r217moon)"/>
  <circle cx="560" cy="248" r="44" fill="#e6edff" opacity="0.95"/>
  <g fill="#c3cfeb" opacity="0.8">
    <circle cx="548" cy="238" r="7"/><circle cx="574" cy="262" r="5"/><circle cx="556" cy="266" r="3.5"/>
  </g>
  <path d="M452 402 l52 -34 M470 418 l40 -26" stroke="#cfe0ff" stroke-width="2.4" opacity="0.2"/>
  <!-- boards -->
  <g fill="#4a3823" stroke="#2e2114" stroke-width="2">
    <rect x="414" y="188" width="262" height="34" rx="4" transform="rotate(-4 545 205)"/>
    <rect x="414" y="288" width="262" height="34" rx="4" transform="rotate(3 545 305)"/>
    <rect x="414" y="384" width="262" height="34" rx="4" transform="rotate(-2 545 401)"/>
  </g>
  <g stroke="#2e2114" stroke-width="1.6" opacity="0.7">
    <path d="M436 200 h180 M470 212 h150" transform="rotate(-4 545 205)"/>
    <path d="M440 300 h190 M486 312 h130" transform="rotate(3 545 305)"/>
    <path d="M438 396 h186 M500 408 h120" transform="rotate(-2 545 401)"/>
  </g>
  <g fill="#171026">
    <circle cx="432" cy="198" r="4"/><circle cx="658" cy="212" r="4"/>
    <circle cx="432" cy="298" r="4"/><circle cx="658" cy="290" r="4"/>
    <circle cx="434" cy="392" r="4"/><circle cx="656" cy="404" r="4"/>
  </g>
  <!-- sill -->
  <rect x="414" y="452" width="262" height="18" rx="4" fill="#33264a"/>
  <path d="M418 454 h254" stroke="#7d6fa8" stroke-width="2" opacity="0.6"/>
  <!-- shafts + floor pool + motes -->
  <path d="M445 462 L655 462 L762 860 L330 860 Z" fill="#cfe0ff" opacity="0.07"/>
  <path d="M492 462 L600 462 L664 860 L436 860 Z" fill="#cfe0ff" opacity="0.06"/>
  <ellipse cx="560" cy="762" rx="215" ry="46" fill="#cfe0ff" opacity="0.1"/>
  <g fill="#dfe8ff">
    <circle cx="520" cy="330" r="2" opacity="0.4"/><circle cx="590" cy="392" r="1.6" opacity="0.3"/>
    <circle cx="556" cy="470" r="2.4" opacity="0.35"/><circle cx="500" cy="540" r="1.8" opacity="0.28"/>
    <circle cx="618" cy="560" r="2" opacity="0.3"/><circle cx="576" cy="640" r="2.6" opacity="0.25"/>
    <circle cx="648" cy="700" r="1.8" opacity="0.22"/><circle cx="530" cy="606" r="1.5" opacity="0.3"/>
    <circle cx="486" cy="420" r="1.6" opacity="0.33"/><circle cx="606" cy="490" r="1.4" opacity="0.3"/>
  </g>

  <!-- ============ four-poster bed (background, behind chair) ============ -->
  <ellipse cx="1043" cy="688" rx="190" ry="17" fill="#000" opacity="0.35"/>
  <rect x="880" y="244" width="326" height="12" rx="5" fill="#3f2e55"/>
  <path d="M880 256 q22 26 0 52 q26 22 0 50 M1206 256 q-22 26 0 52 q-26 22 0 50" stroke="#cfd8ea" stroke-width="3" opacity="0.14" fill="none"/>
  <!-- sheer canopy panels -->
  <path d="M886 256 q26 130 -8 300 l40 0 q22 -160 4 -300 Z" fill="#cfd8ea" opacity="0.1"/>
  <path d="M1200 256 q-26 130 8 300 l-40 0 q-22 -160 -4 -300 Z" fill="#cfd8ea" opacity="0.1"/>
  <path d="M884 258 q80 34 160 0 q80 34 160 0" stroke="#cfd8ea" stroke-width="3" opacity="0.16" fill="none"/>
  <!-- posts -->
  <g fill="#523752">
    <rect x="886" y="252" width="13" height="428" rx="5"/>
    <rect x="1188" y="252" width="13" height="428" rx="5"/>
  </g>
  <circle cx="892" cy="246" r="9" fill="#644364"/>
  <circle cx="1194" cy="246" r="9" fill="#644364"/>
  <path d="M888 300 v340 M1190 300 v340" stroke="#3a2740" stroke-width="3" opacity="0.6"/>
  <!-- headboard + bedding -->
  <rect x="899" y="330" width="290" height="140" rx="14" fill="#4b2f45"/>
  <path d="M916 350 q128 -34 256 0 v96 h-256 Z" fill="#3a2438"/>
  <rect x="884" y="470" width="322" height="92" rx="12" fill="#6e5a8c"/>
  <path d="M886 496 q160 -18 318 0 l0 18 q-158 -14 -318 0 Z" fill="#a99cc0" opacity="0.9"/>
  <!-- body-shaped lump of pillows under the blanket -->
  <path d="M1002 470 q30 -26 66 -20 q40 6 58 20 Z" fill="#7b679a"/>
  <path d="M1108 470 q22 -30 44 -24 q18 6 24 24 Z" fill="#83709f"/>
  <path d="M1010 468 q28 -20 56 -16 M1116 468 q18 -22 40 -18" stroke="#4e3f66" stroke-width="3" fill="none" opacity="0.7"/>
  <ellipse cx="928" cy="462" rx="30" ry="14" fill="#cdc4dc"/>
  <path d="M906 468 q22 10 44 0" stroke="#9a90ac" stroke-width="2.4" fill="none"/>
  <path d="M920 540 q60 12 130 4 M1060 548 q60 -10 120 2" stroke="#4e3f66" stroke-width="2.6" fill="none" opacity="0.6"/>
  <!-- bed base -->
  <rect x="884" y="560" width="322" height="66" rx="8" fill="#3c2b48"/>
  <path d="M890 574 h310" stroke="#2b1e34" stroke-width="4" opacity="0.8"/>

  <!-- ============ vanity + cracked mirror (mid-left of bed) ============ -->
  <ellipse cx="757" cy="656" rx="96" ry="13" fill="#000" opacity="0.35"/>
  <ellipse cx="764" cy="380" rx="62" ry="76" fill="#141824"/>
  <ellipse cx="764" cy="380" rx="56" ry="70" fill="url(#r217glass)"/>
  <ellipse cx="764" cy="380" rx="62" ry="76" fill="none" stroke="#8a6c33" stroke-width="8"/>
  <path d="M718 336 q18 -30 46 -34" stroke="#e9f0f8" stroke-width="4" opacity="0.25" fill="none"/>
  <!-- cracks -->
  <g stroke="#e8f0f8" stroke-width="1.6" fill="none" opacity="0.5">
    <path d="M738 366 L706 336 M738 366 L764 316 M738 366 L790 352 M738 366 L780 428 M738 366 L724 444 M738 366 L712 392"/>
    <path d="M730 356 q8 12 16 2 M746 378 q-10 8 -18 0"/>
  </g>
  <!-- green glint caught in the glass -->
  <path d="M776 348 l24 38" stroke="#4ade80" stroke-width="5" stroke-linecap="round" opacity="0.5"/>
  <circle cx="800" cy="392" r="4" fill="#4ade80" opacity="0.6"/>
  <!-- table -->
  <rect x="676" y="520" width="162" height="18" rx="4" fill="#5c4530"/>
  <path d="M678 522 h158" stroke="#7a5f42" stroke-width="3" opacity="0.8"/>
  <rect x="690" y="538" width="136" height="24" rx="3" fill="#4a3626"/>
  <rect x="698" y="542" width="56" height="16" rx="2" fill="none" stroke="#33251a" stroke-width="2.4"/>
  <rect x="762" y="542" width="56" height="16" rx="2" fill="none" stroke="#33251a" stroke-width="2.4"/>
  <circle cx="726" cy="550" r="3.4" fill="#c9a24a"/><circle cx="790" cy="550" r="3.4" fill="#c9a24a"/>
  <path d="M694 562 q-8 44 -4 88 M822 562 q8 44 4 88" stroke="#4a3626" stroke-width="10" fill="none"/>
  <!-- candle stub (warm) -->
  <circle cx="702" cy="482" r="82" fill="url(#r217candleG)"/>
  <ellipse cx="702" cy="523" rx="16" ry="5" fill="#b08d4f"/>
  <rect x="693" y="486" width="18" height="36" rx="4" fill="#ece2c4"/>
  <path d="M695 492 q-4 14 2 22 M709 490 q5 12 1 20" stroke="#d8cba4" stroke-width="3" fill="none"/>
  <ellipse cx="702" cy="472" rx="5.5" ry="11" fill="#ffd985"/>
  <ellipse cx="702" cy="475" rx="2.6" ry="5.5" fill="#fff3c4"/>
  <ellipse cx="757" cy="524" rx="70" ry="7" fill="#ffbe57" opacity="0.16"/>
  <!-- perfume bottle + brush -->
  <rect x="794" y="492" width="16" height="28" rx="3" fill="#7fb3d5" opacity="0.85"/>
  <circle cx="802" cy="488" r="5" fill="#a8cbe2"/>
  <path d="M740 530 l26 -8" stroke="#6b4a2a" stroke-width="6" stroke-linecap="round"/>
  <path d="M764 520 q10 -4 14 2 q2 6 -8 8" fill="#8a6636"/>

  <!-- ============ WORKBENCH (megaphone overlay lands 184-312 x / 472-580 y) ============ -->
  <ellipse cx="276" cy="742" rx="185" ry="16" fill="#000" opacity="0.35"/>
  <!-- pegboard above bench, clear of the overlay zone -->
  <rect x="136" y="322" width="200" height="140" rx="6" fill="#3a2f56" stroke="#2a2144" stroke-width="4"/>
  <g fill="#2a2144">
    <circle cx="160" cy="342" r="2.4"/><circle cx="200" cy="342" r="2.4"/><circle cx="240" cy="342" r="2.4"/><circle cx="280" cy="342" r="2.4"/><circle cx="316" cy="342" r="2.4"/>
    <circle cx="160" cy="440" r="2.4"/><circle cx="240" cy="440" r="2.4"/><circle cx="316" cy="440" r="2.4"/>
  </g>
  <path d="M168 352 v14 l-8 60 h30 l-8 -60 v-14" fill="none" stroke="#8f8f96" stroke-width="5"/>
  <path d="M162 426 h28" stroke="#8f8f96" stroke-width="5"/>
  <path d="M228 352 v10 q-14 40 4 62 M244 352 v10 q14 40 -4 62" stroke="#aab2bc" stroke-width="5" fill="none"/>
  <circle cx="230" cy="430" r="7" fill="none" stroke="#aab2bc" stroke-width="4"/>
  <circle cx="244" cy="430" r="7" fill="none" stroke="#aab2bc" stroke-width="4"/>
  <circle cx="292" cy="392" r="22" fill="none" stroke="#6b5a34" stroke-width="7"/>
  <path d="M292 370 v-16" stroke="#8f8f96" stroke-width="4"/>
  <!-- bench -->
  <rect x="116" y="574" width="320" height="14" rx="3" fill="#9a7440"/>
  <rect x="116" y="588" width="320" height="20" rx="3" fill="#5c452a"/>
  <path d="M120 580 h312" stroke="#b08d4f" stroke-width="2" opacity="0.5"/>
  <g stroke="#3b2c1a" stroke-width="11">
    <path d="M140 608 V738 M412 608 V738"/>
  </g>
  <rect x="134" y="672" width="284" height="12" fill="#4a3722"/>
  <!-- under-shelf clutter -->
  <rect x="150" y="648" width="58" height="24" rx="4" fill="#565661"/>
  <path d="M154 654 h50 M154 662 h50" stroke="#3d3d46" stroke-width="3"/>
  <path d="M226 672 q16 -22 34 0 q14 -16 26 0 Z" fill="#6b6b70"/>
  <rect x="304" y="644" width="40" height="28" rx="4" fill="#1e3a26"/>
  <path d="M304 654 h40" stroke="#4ade80" stroke-width="3" opacity="0.6"/>
  <!-- dust shadow where the megaphone sits (overlay zone kept clear) -->
  <ellipse cx="248" cy="582" rx="56" ry="7" fill="#000" opacity="0.18"/>
  <!-- bench items LEFT of overlay zone -->
  <path d="M136 546 q-12 4 -12 18 q0 14 12 16 M124 556 v14" fill="none" stroke="#8f8f96" stroke-width="6"/>
  <path d="M138 548 h14 v30 h-14" fill="none" stroke="#8f8f96" stroke-width="5"/>
  <rect x="160" y="556" width="18" height="20" rx="2" fill="#7a3448"/>
  <path d="M160 562 h18 M160 570 h18" stroke="#5d2536" stroke-width="2.4"/>
  <rect x="162" y="538" width="14" height="18" rx="2" fill="#2b6b3d"/>
  <path d="M162 544 h14 M162 550 h14" stroke="#1d4a2a" stroke-width="2.2"/>
  <!-- bench items RIGHT of overlay zone: glow-paint jars, scissors, brush cup -->
  <circle cx="362" cy="548" r="46" fill="url(#r217greenG)" opacity="0.7"/>
  <g stroke="#12251a" stroke-width="2">
    <rect x="318" y="546" width="20" height="26" rx="3" fill="#1b3a22"/>
    <rect x="344" y="546" width="20" height="26" rx="3" fill="#1b3a22"/>
    <rect x="370" y="546" width="20" height="26" rx="3" fill="#1b3a22"/>
    <rect x="396" y="546" width="20" height="26" rx="3" fill="#1b3a22"/>
  </g>
  <g fill="#2a2a33">
    <rect x="318" y="540" width="20" height="7" rx="2"/><rect x="344" y="540" width="20" height="7" rx="2"/>
    <rect x="370" y="540" width="20" height="7" rx="2"/><rect x="396" y="540" width="20" height="7" rx="2"/>
  </g>
  <g stroke="#4ade80" stroke-width="3" opacity="0.85">
    <path d="M320 560 h16 M346 560 h16 M372 560 h16 M398 560 h16"/>
  </g>
  <ellipse cx="368" cy="578" rx="62" ry="8" fill="#4ade80" opacity="0.14"/>
  <path d="M332 588 l24 -10 M336 578 l22 12" stroke="#aab2bc" stroke-width="4" stroke-linecap="round"/>
  <circle cx="330" cy="590" r="4.5" fill="none" stroke="#aab2bc" stroke-width="3"/>
  <circle cx="334" cy="580" r="4.5" fill="none" stroke="#aab2bc" stroke-width="3"/>
  <rect x="418" y="548" width="20" height="26" rx="3" fill="#4a3626"/>
  <path d="M424 548 l-3 -18 M430 548 l2 -20 M434 548 l6 -14" stroke="#8a6636" stroke-width="4" stroke-linecap="round"/>
  <path d="M421 530 q4 -5 8 -2 M432 528 q5 -4 9 0" stroke="#4ade80" stroke-width="4" stroke-linecap="round"/>
  <!-- paint drips on floor -->
  <g fill="#4ade80" opacity="0.3">
    <ellipse cx="352" cy="628" rx="10" ry="4"/><ellipse cx="380" cy="642" rx="6" ry="3"/><ellipse cx="330" cy="650" rx="7" ry="3"/>
  </g>

  <!-- ============ SEWING TABLE (machine head inside 480-672 x / 504-648 y) ============ -->
  <ellipse cx="580" cy="752" rx="138" ry="14" fill="#000" opacity="0.35"/>
  <!-- fabric bolt leaning at left -->
  <path d="M452 588 L484 574 L512 726 L480 740 Z" fill="#7fa06e"/>
  <ellipse cx="468" cy="581" rx="17" ry="9" fill="#a8c99a"/>
  <ellipse cx="468" cy="581" rx="6" ry="3.4" fill="#4a5c40"/>
  <path d="M462 610 l38 -14 M470 650 l36 -14 M478 690 l34 -12" stroke="#5d7850" stroke-width="2.4" opacity="0.7"/>
  <!-- cast-iron base + treadle -->
  <g stroke="#23202e" stroke-width="9" fill="none">
    <path d="M506 620 q-14 40 -6 74 q-4 28 8 48 M654 620 q14 40 6 74 q4 28 -8 48"/>
    <path d="M506 700 h148"/>
  </g>
  <path d="M534 714 L628 714 L642 738 L548 738 Z" fill="#2b2838" stroke="#17151f" stroke-width="3"/>
  <path d="M552 720 h74 M546 728 h84 M566 716 v20 M596 716 v20" stroke="#4a4560" stroke-width="2.2"/>
  <circle cx="646" cy="640" r="24" fill="none" stroke="#23202e" stroke-width="7"/>
  <circle cx="646" cy="640" r="5" fill="#23202e"/>
  <path d="M638 716 L644 664" stroke="#3d3a4e" stroke-width="5"/>
  <path d="M640 618 L646 566 M652 618 L658 570" stroke="#3d3a4e" stroke-width="3" opacity="0.8"/>
  <!-- tabletop -->
  <rect x="476" y="596" width="208" height="14" rx="3" fill="#6e5433"/>
  <rect x="476" y="610" width="208" height="12" rx="3" fill="#4a3620"/>
  <path d="M480 600 h200" stroke="#8a6b42" stroke-width="2" opacity="0.6"/>
  <!-- machine head -->
  <rect x="508" y="584" width="144" height="14" rx="5" fill="#191726"/>
  <path d="M512 591 h136" stroke="#c9a24a" stroke-width="1.6" opacity="0.55"/>
  <path d="M628 584 v-46 q0 -14 -14 -14 h-70 q-12 0 -12 12 v10 q0 10 10 10 h34" fill="none" stroke="#1c1a2e" stroke-width="16" stroke-linecap="round"/>
  <path d="M544 556 v30" stroke="#8f8f96" stroke-width="4"/>
  <circle cx="638" cy="556" r="13" fill="#2e2b4a" stroke="#17151f" stroke-width="3"/>
  <circle cx="638" cy="556" r="4" fill="#17151f"/>
  <rect x="556" y="508" width="12" height="18" rx="2" fill="#2b6b3d"/>
  <path d="M556 514 h12 M556 520 h12" stroke="#4ade80" stroke-width="2.2" opacity="0.9"/>
  <path d="M562 508 q22 10 -14 44 q-6 20 -4 34" stroke="#4ade80" stroke-width="2" fill="none" opacity="0.8"/>
  <path d="M628 538 q-30 -18 -70 -12" stroke="#4ade80" stroke-width="2.4" fill="none" opacity="0.3"/>
  <!-- cloth under the needle, draped over edge -->
  <path d="M500 584 q30 -14 62 -6 l6 6 q-34 8 -68 0 Z" fill="#cfe3c2"/>
  <path d="M498 584 q-8 30 4 56 l22 0 q-8 -28 -2 -56 Z" fill="#b9d3a6"/>
  <path d="M506 598 q8 4 14 0 M504 620 q10 5 16 0" stroke="#8aa87c" stroke-width="2" fill="none"/>

  <!-- ============ rug + THE CHAIR (George overlay sits 912-1104 x / 288-702 y) ============ -->
  <path d="M880 692 L1232 692 L1292 830 L828 830 Z" fill="#7a3448" opacity="0.85"/>
  <path d="M896 704 L1218 704 L1268 816 L852 816 Z" fill="none" stroke="#caa24a" stroke-width="3" opacity="0.4"/>
  <path d="M960 748 l16 10 16 -10 -16 -10 Z M1060 748 l16 10 16 -10 -16 -10 Z M1160 748 l16 10 16 -10 -16 -10 Z" fill="#caa24a" opacity="0.3"/>
  <ellipse cx="1150" cy="790" rx="60" ry="16" fill="#000" opacity="0.15"/>
  <ellipse cx="1020" cy="758" rx="118" ry="15" fill="#000" opacity="0.35"/>
  <!-- ladder-back wooden chair -->
  <g stroke="#5d3d1e" stroke-width="12" fill="none">
    <path d="M954 750 V478 M1086 750 V478"/>
    <path d="M968 758 V640 M1072 758 V640"/>
    <path d="M958 692 h110"/>
  </g>
  <path d="M950 472 h140" stroke="#6e4a24" stroke-width="14" stroke-linecap="round"/>
  <rect x="954" y="500" width="132" height="12" rx="4" fill="#6e4a24"/>
  <rect x="954" y="538" width="132" height="12" rx="4" fill="#6e4a24"/>
  <rect x="940" y="600" width="160" height="28" rx="6" fill="#7a5226"/>
  <path d="M944 622 h152" stroke="#4c3315" stroke-width="6"/>
  <path d="M954 486 v256 M1086 486 v256" stroke="#cfd8ea" stroke-width="2" opacity="0.18"/>
  <!-- cut clothesline coils beneath -->
  <g stroke="#c4bba2" stroke-width="5" fill="none" opacity="0.85">
    <ellipse cx="1002" cy="774" rx="27" ry="8"/>
    <ellipse cx="1050" cy="784" rx="20" ry="7"/>
    <path d="M974 780 q-22 8 -40 4 M1068 790 q24 6 40 -2"/>
  </g>
  <path d="M934 782 l-6 6 M1108 786 l8 5" stroke="#8f8878" stroke-width="3"/>

  <!-- ============ COSTUME RACK (inside 1216-1504 x / 234-630 y) ============ -->
  <ellipse cx="1373" cy="740" rx="152" ry="15" fill="#000" opacity="0.35"/>
  <g stroke="#4a3a28" stroke-width="12" fill="none">
    <path d="M1252 258 V722 M1494 258 V722"/>
  </g>
  <rect x="1246" y="252" width="254" height="11" rx="5" fill="#55432c"/>
  <path d="M1252 268 l20 20 M1494 268 l-20 20" stroke="#3a2d1e" stroke-width="6"/>
  <rect x="1222" y="720" width="62" height="10" rx="4" fill="#3a2d1e"/>
  <rect x="1464" y="720" width="62" height="10" rx="4" fill="#3a2d1e"/>
  <path d="M1254 300 v400 M1496 300 v400" stroke="#2e2418" stroke-width="3" opacity="0.6"/>
  <!-- hangers + three half-sewn phantom sheets (BASE ART, kept) -->
  <g stroke="#b08d4f" stroke-width="4" fill="none">
    <path d="M1278 296 L1302 272 L1326 296 M1302 272 q0 -12 8 -14"/>
    <path d="M1346 300 L1374 274 L1402 300 M1374 274 q0 -12 8 -14"/>
    <path d="M1420 302 L1450 276 L1480 302 M1450 276 q0 -12 8 -14"/>
  </g>
  <path d="M1278 296 h48 q10 90 -6 168 q-20 10 -16 -12 q-16 26 -10 -8 q-12 20 -8 -10 Z" fill="#b9d3a6"/>
  <path d="M1346 300 h56 q12 108 -6 214 q-24 12 -20 -14 q-18 30 -12 -8 q-14 22 -10 -12 Z" fill="#c6dcb2"/>
  <ellipse cx="1372" cy="356" rx="8" ry="12" fill="#0c1a10" opacity="0.85"/>
  <path d="M1420 302 h60 q14 122 -4 252 q-26 14 -22 -16 q-20 34 -14 -10 q-16 24 -10 -14 Z" fill="#d4e6c4"/>
  <ellipse cx="1444" cy="352" rx="9" ry="13" fill="#0c1a10"/>
  <ellipse cx="1472" cy="352" rx="9" ry="13" fill="#0c1a10"/>
  <g stroke="#3f6b46" stroke-width="2" stroke-dasharray="5 4" fill="none" opacity="0.8">
    <path d="M1286 320 q20 60 8 128 M1356 326 q24 80 10 172 M1430 330 q28 96 14 208"/>
  </g>
  <circle cx="1322" cy="308" r="2.4" fill="#aab2bc"/><circle cx="1396" cy="314" r="2.4" fill="#aab2bc"/><circle cx="1474" cy="318" r="2.4" fill="#aab2bc"/>
  <g stroke="#4ade80" stroke-width="3" opacity="0.3" fill="none">
    <path d="M1284 452 q22 8 40 2 M1350 500 q26 10 46 2 M1426 540 q30 10 52 2"/>
  </g>
  <!-- thinner tin + low green wash -->
  <circle cx="1284" cy="694" r="72" fill="url(#r217greenG)" opacity="0.6"/>
  <rect x="1256" y="674" width="54" height="46" rx="5" fill="#37493c" stroke="#243026" stroke-width="2.4"/>
  <path d="M1256 690 h54" stroke="#4ade80" stroke-width="3.4" opacity="0.8"/>
  <ellipse cx="1283" cy="674" rx="27" ry="5" fill="#4a5e4e"/>
  <path d="M1268 720 q6 8 2 14 M1296 720 q-4 8 0 14" stroke="#4ade80" stroke-width="3" opacity="0.35" fill="none"/>

  <!-- ============ tailor's mannequin beside the rack ============ -->
  <ellipse cx="1558" cy="726" rx="42" ry="10" fill="#000" opacity="0.3"/>
  <rect x="1554" y="556" width="9" height="158" rx="4" fill="#3a3026"/>
  <path d="M1534 722 l24 -14 24 14 M1558 708 v14" stroke="#3a3026" stroke-width="7" fill="none"/>
  <path d="M1530 436 q-6 56 16 96 q-16 20 -4 28 h32 q12 -8 -4 -28 q22 -40 16 -96 q-14 -18 -28 -18 q-14 0 -28 18 Z" fill="#7d6a55"/>
  <path d="M1558 420 v138 M1542 446 q-2 50 10 84 M1574 446 q2 50 -10 84" stroke="#5d4d3c" stroke-width="2.4" fill="none"/>
  <circle cx="1558" cy="414" r="10" fill="#4a3a28"/>
  <path d="M1538 468 q20 -12 40 0 l-6 34 q-14 8 -28 0 Z" fill="#b9d3a6"/>
  <path d="M1542 474 q16 -8 32 0" stroke="#3f6b46" stroke-width="2" stroke-dasharray="4 3" fill="none"/>
  <circle cx="1544" cy="470" r="2" fill="#cfd8ea"/><circle cx="1572" cy="470" r="2" fill="#cfd8ea"/>
  <path d="M1530 440 q-4 52 14 90" stroke="#cfd8ea" stroke-width="2.4" opacity="0.28" fill="none"/>

  <!-- ============ scattered room-service tray (foreground) ============ -->
  <ellipse cx="795" cy="820" rx="74" ry="17" fill="#000" opacity="0.3"/>
  <ellipse cx="795" cy="812" rx="68" ry="15" fill="#6e6455" stroke="#4c443a" stroke-width="3"/>
  <ellipse cx="795" cy="810" rx="54" ry="11" fill="none" stroke="#82786a" stroke-width="2"/>
  <path d="M742 790 a30 18 0 0 1 60 0 Z" fill="#9aa2ac"/>
  <path d="M748 790 a24 14 0 0 1 48 0" fill="none" stroke="#6b7078" stroke-width="2.4"/>
  <circle cx="772" cy="770" r="4.5" fill="#6b7078"/>
  <path d="M754 784 q10 -8 22 -6" stroke="#c8ced6" stroke-width="2.4" opacity="0.6" fill="none"/>
  <path d="M826 800 q14 -8 22 2 q6 8 -6 12 l-18 -2 Z" fill="#d8d3c8"/>
  <path d="M846 806 q8 0 8 6" stroke="#b5afa2" stroke-width="3" fill="none"/>
  <ellipse cx="850" cy="822" rx="20" ry="6" fill="#3a2c1c" opacity="0.5"/>
  <g fill="#b5afa2"><circle cx="778" cy="806" r="2"/><circle cx="806" cy="814" r="2.4"/><circle cx="818" cy="804" r="1.8"/></g>

  <!-- glow footprints toward the west passage -->
  <g fill="#4ade80" opacity="0.35">
    <ellipse cx="316" cy="792" rx="15" ry="7" transform="rotate(14 316 792)"/>
    <ellipse cx="336" cy="770" rx="8" ry="4" transform="rotate(14 336 770)"/>
    <ellipse cx="228" cy="822" rx="15" ry="7" transform="rotate(20 228 822)"/>
    <ellipse cx="250" cy="800" rx="8" ry="4" transform="rotate(20 250 800)"/>
    <ellipse cx="140" cy="852" rx="16" ry="8" transform="rotate(16 140 852)"/>
    <ellipse cx="164" cy="830" rx="8" ry="4" transform="rotate(16 164 830)"/>
  </g>

  <rect width="1600" height="900" filter="url(#r217grain)" opacity="0.3"/>
  <rect width="1600" height="900" fill="url(#r217vign)"/>
</svg>
